# OBJ Exported from DrPetter's Sculptris
# symmetry 0
usemtl (null)
s 0
v 0.041162 0.952226 0.085597
v 0.911400 0.234748 -0.151345
v 0.589865 -0.623331 -0.347103
v 0.502734 -0.812127 0.103319
v 0.140026 -0.776657 0.270006
v 0.680330 0.477815 0.184919
v 0.660190 0.581372 -0.243005
v 0.217320 0.548111 0.329021
v 0.094103 0.718670 -0.427628
v 0.118021 -0.755394 -0.381055
v 0.585953 -0.004056 0.284934
v 0.421761 -0.471179 0.263520
v -0.250415 -0.727563 0.290302
v -0.584464 0.579206 -0.336278
v -0.593466 0.606458 0.195987
v -0.344483 0.882593 -0.019627
v -0.314941 0.325933 0.237867
v -0.539743 -0.662003 -0.316093
v -0.238934 -0.941813 -0.110837
v -0.345563 -0.252136 0.160106
v 0.182850 0.164698 -0.047744
v -0.331971 -0.090591 -0.126988
v 0.048825 -0.380175 0.005793
v -0.320348 -0.093497 0.032224
v -0.385252 0.171852 0.125819
v -0.108775 0.422004 0.129498
v -0.234565 0.333345 0.120553
v -0.410729 0.010481 0.045284
v -0.797136 0.118602 -0.334279
v -0.730345 -0.303975 -0.366205
v -0.937094 0.084970 0.059958
v -0.103068 -0.156336 -0.562583
v 0.848266 -0.207908 -0.294894
v -0.778181 -0.470599 0.133315
v 0.147420 -0.970919 -0.031078
v -0.535666 -0.786182 0.093798
v 0.779645 -0.480740 0.116603
v -0.208733 0.678379 0.314874
v -0.754337 0.324912 0.218253
v -0.070273 -0.950580 0.153171
v -0.563744 0.340458 0.299172
v 0.590467 -0.617787 0.216230
v -0.922202 -0.142523 -0.185697
v 0.437774 0.834135 0.011807
v -0.538424 0.059323 0.244208
v -0.846092 0.441953 -0.032216
v -0.307471 0.285147 -0.007093
v 0.547309 0.171858 -0.466197
v 0.335638 -0.176698 0.100782
v 0.428340 0.308191 0.160987
v 0.526286 -0.218865 -0.507722
v 0.891461 -0.068934 0.043621
v -0.189331 -0.662784 -0.420287
v 0.359169 -0.849553 -0.187591
v 0.833576 0.172289 0.125043
v -0.516949 -0.576345 0.257948
vn 0.077502 0.937535 0.339147
vn 0.948633 0.269478 -0.165759
vn 0.574974 -0.575538 -0.581517
vn 0.490743 -0.769417 0.408863
vn 0.117105 -0.317176 0.941109
vn 0.605017 0.384648 0.697137
vn 0.697582 0.581003 -0.419303
vn 0.064154 -0.102883 0.992622
vn 0.086232 0.654943 -0.750742
vn 0.077932 -0.655406 -0.751246
vn -0.006092 0.038866 0.999226
vn -0.104686 0.022434 0.994252
vn -0.109970 -0.285628 0.952010
vn -0.536604 0.581972 -0.611036
vn -0.487057 0.556906 0.672779
vn -0.396943 0.917306 0.031399
vn 0.506901 -0.480908 0.715387
vn -0.551529 -0.567978 -0.610915
vn -0.268942 -0.945107 -0.185588
vn 0.485582 0.338205 0.806119
vn -0.329475 -0.265031 0.906204
vn 0.692018 0.211997 0.690049
vn -0.096834 0.439224 0.893144
vn 0.913096 0.346629 0.214719
vn 0.827057 -0.448672 0.338630
vn 0.227234 -0.743351 0.629121
vn 0.486938 -0.859484 0.155495
vn 0.881958 0.111751 0.457888
vn -0.712877 0.163989 -0.681846
vn -0.636204 -0.307062 -0.707783
vn -0.927785 0.049170 0.369861
vn -0.088386 -0.074270 -0.993314
vn 0.847896 -0.171414 -0.501688
vn -0.776763 -0.382465 0.500360
vn 0.192489 -0.981076 -0.020920
vn -0.547812 -0.755156 0.360057
vn 0.799822 -0.352107 0.486113
vn -0.069791 0.230023 0.970680
vn -0.602039 0.135531 0.786880
vn -0.098663 -0.863277 0.494993
vn -0.079944 0.079557 0.993619
vn 0.347707 -0.339867 0.873837
vn -0.927031 -0.180523 -0.328672
vn 0.488351 0.854108 0.178924
vn 0.212142 -0.232130 0.949269
vn -0.871032 0.490084 0.033483
vn 0.599065 -0.639015 0.482474
vn 0.431556 0.172200 -0.885498
vn -0.556612 0.193225 0.807989
vn -0.253589 -0.251067 0.934162
vn 0.325985 -0.116301 -0.938194
vn 0.914104 -0.089650 0.395446
vn -0.151188 -0.495305 -0.855462
vn 0.361973 -0.844499 -0.394711
vn 0.781845 0.122549 0.611310
vn -0.329098 -0.104446 0.938502
f 2//2 7//7 6//6
f 48//48 7//7 2//2
f 8//8 21//21 50//50
f 7//7 48//48 9//9
f 21//21 8//8 26//26
f 3//3 4//4 54//54
f 10//10 3//3 54//54
f 12//12 11//11 49//49
f 11//11 37//37 52//52
f 37//37 12//12 42//42
f 4//4 12//12 5//5
f 15//15 14//14 46//46
f 16//16 14//14 15//15
f 34//34 31//31 43//43
f 17//17 45//45 25//25
f 31//31 45//45 39//39
f 39//39 45//45 41//41
f 1//1 16//16 38//38
f 18//18 19//19 36//36
f 30//30 18//18 34//34
f 28//28 20//20 24//24
f 4//4 5//5 35//35
f 13//13 5//5 23//23
f 35//35 5//5 40//40
f 11//11 21//21 49//49
f 23//23 22//22 20//20
f 20//20 13//13 23//23
f 23//23 5//5 12//12
f 26//26 17//17 27//27
f 21//21 26//26 47//47
f 25//25 45//45 28//28
f 31//31 34//34 45//45
f 20//20 22//22 24//24
f 22//22 28//28 24//24
f 28//28 47//47 25//25
f 47//47 17//17 25//25
f 17//17 47//47 27//27
f 47//47 26//26 27//27
f 45//45 20//20 28//28
f 46//46 29//29 31//31
f 31//31 29//29 43//43
f 46//46 31//31 39//39
f 18//18 30//30 32//32
f 37//37 33//33 52//52
f 3//3 33//33 37//37
f 30//30 29//29 32//32
f 10//10 19//19 53//53
f 6//6 8//8 50//50
f 52//52 2//2 55//55
f 32//32 3//3 10//10
f 2//2 33//33 48//48
f 48//48 33//33 51//51
f 19//19 13//13 36//36
f 13//13 20//20 56//56
f 19//19 10//10 35//35
f 19//19 35//35 40//40
f 32//32 10//10 53//53
f 20//20 34//34 56//56
f 34//34 18//18 36//36
f 11//11 12//12 37//37
f 4//4 3//3 37//37
f 4//4 37//37 42//42
f 17//17 26//26 38//38
f 15//15 39//39 41//41
f 15//15 46//46 39//39
f 17//17 38//38 15//15
f 38//38 16//16 15//15
f 13//13 19//19 40//40
f 5//5 13//13 40//40
f 1//1 38//38 8//8
f 38//38 26//26 8//8
f 45//45 17//17 41//41
f 17//17 15//15 41//41
f 12//12 4//4 42//42
f 29//29 30//30 43//43
f 30//30 34//34 43//43
f 7//7 9//9 44//44
f 6//6 7//7 44//44
f 44//44 8//8 6//6
f 1//1 8//8 44//44
f 9//9 1//1 44//44
f 34//34 20//20 45//45
f 16//16 1//1 9//9
f 16//16 9//9 14//14
f 9//9 32//32 14//14
f 14//14 29//29 46//46
f 21//21 22//22 23//23
f 28//28 22//22 47//47
f 22//22 21//21 47//47
f 32//32 48//48 51//51
f 21//21 23//23 49//49
f 23//23 12//12 49//49
f 9//9 48//48 32//32
f 21//21 11//11 50//50
f 11//11 6//6 50//50
f 33//33 3//3 51//51
f 3//3 32//32 51//51
f 11//11 52//52 55//55
f 33//33 2//2 52//52
f 29//29 14//14 32//32
f 19//19 18//18 53//53
f 18//18 32//32 53//53
f 4//4 35//35 54//54
f 35//35 10//10 54//54
f 2//2 6//6 55//55
f 6//6 11//11 55//55
f 34//34 36//36 56//56
f 36//36 13//13 56//56
