# OBJ Exported from DrPetter's Sculptris
# symmetry 0
usemtl (null)
s 0
v 0.000000 1.056653 0.931559
v 0.396826 0.394169 0.482824
v 0.271789 0.544494 -0.116562
v 0.483342 0.896895 0.157386
v 0.289650 1.121715 0.458051
v 0.000000 0.383553 1.586348
v 0.000000 0.971012 1.383158
v 0.000000 0.987409 1.135353
v 0.375411 0.570305 1.297314
v 0.115798 1.034823 0.974822
v 0.486994 0.543386 1.002649
v 0.000000 0.574539 0.722217
v 0.572372 0.690883 0.717066
v 0.000000 0.472725 1.108840
v 0.372857 0.824709 -0.031934
v 0.000000 0.475750 0.420001
v 0.343516 0.431266 1.161041
v 0.389480 1.020685 0.264450
v 0.316169 0.452886 0.709152
v 0.469982 0.495746 0.713344
v 0.000000 0.730641 -0.157199
v 0.000000 0.626159 -0.175956
v 0.091318 0.681421 -0.173618
v 0.161038 0.521934 -0.134163
v 0.331812 0.672701 -0.117188
v 0.089839 0.585122 -0.170352
v 0.191032 0.634936 -0.168645
v 0.389171 0.541282 -0.040251
v 0.478430 0.682093 0.019753
v 0.227310 0.436844 -0.000480
v 0.000000 0.515557 0.937328
v 0.585759 0.560645 0.445730
v 0.340370 0.425586 0.938999
v 0.000000 1.096317 0.119627
v 0.570238 0.683457 0.220364
v 0.302097 0.975738 0.048502
v 0.372689 0.998054 0.161071
v 0.490868 0.944390 0.653380
v 0.587269 0.810079 0.417700
v 0.267893 1.037295 0.859061
v 0.186765 0.389528 1.313805
v 0.000000 0.406629 1.304889
v 0.255657 0.425221 1.531878
v 0.306690 0.413245 1.322085
v 0.098386 0.992985 1.131542
v 0.184272 0.995874 1.042637
v 0.232320 0.948626 1.201279
v 0.421087 0.792820 1.043797
v 0.052893 1.013164 1.042391
v 0.000000 0.481442 -0.117823
v 0.481138 0.990055 0.382362
v 0.190551 0.485285 0.569865
v 0.461402 0.474962 0.173688
v 0.165677 0.822552 -0.113407
v 0.216342 0.394786 0.290549
v 0.000000 0.378848 0.131644
v 0.287230 1.066743 0.195339
v 0.209394 0.428220 1.040583
v 0.109817 1.095005 0.810443
v 0.165712 1.121337 0.680976
v 0.000000 1.165273 0.589662
v 0.111748 0.481256 1.030907
v 0.277705 0.344486 1.239727
v 0.369358 0.809840 1.454455
v 0.000000 0.532355 2.434741
v 0.121620 0.415076 1.160604
v 0.238727 0.419784 1.172318
v 0.180653 0.511066 0.854767
v 0.283838 0.420456 1.083632
v 0.000000 0.839694 -0.116804
v 0.000000 0.851601 1.867408
v 0.201666 0.744884 1.985699
v 0.216420 0.488298 2.037292
v 0.000000 0.398082 1.984966
v 0.150890 0.898805 1.613183
v 0.201441 0.933822 1.417452
v 0.000000 0.915911 1.616747
v 0.309609 0.617629 1.721389
v 0.146139 0.418111 1.783244
v 0.000000 0.709300 2.249773
v 0.269706 0.808511 1.724108
v 0.374961 0.596620 1.510857
v 0.111274 0.388223 1.438673
v 0.159117 0.634721 2.276615
v 0.157944 0.831594 1.801091
v 0.244377 0.472840 1.770581
v -0.396826 0.394169 0.482824
v -0.271789 0.544494 -0.116562
v -0.483342 0.896895 0.157386
v -0.289650 1.121715 0.458051
v -0.375411 0.570305 1.297314
v -0.115798 1.034823 0.974822
v -0.486994 0.543386 1.002649
v -0.572372 0.690883 0.717066
v -0.372857 0.824709 -0.031934
v -0.343516 0.431266 1.161041
v -0.389480 1.020685 0.264450
v -0.316169 0.452886 0.709152
v -0.469982 0.495746 0.713344
v -0.091318 0.681421 -0.173618
v -0.161038 0.521934 -0.134163
v -0.331812 0.672701 -0.117188
v -0.089839 0.585122 -0.170352
v -0.191032 0.634936 -0.168645
v -0.389171 0.541282 -0.040251
v -0.478430 0.682093 0.019753
v -0.227310 0.436844 -0.000480
v -0.585759 0.560645 0.445730
v -0.340370 0.425586 0.938999
v -0.570238 0.683457 0.220364
v -0.302097 0.975738 0.048502
v -0.372689 0.998054 0.161071
v -0.490868 0.944390 0.653380
v -0.587269 0.810079 0.417700
v -0.267893 1.037295 0.859061
v -0.186765 0.389528 1.313805
v -0.255657 0.425221 1.531878
v -0.306690 0.413245 1.322085
v -0.098386 0.992985 1.131542
v -0.184272 0.995874 1.042637
v -0.232320 0.948626 1.201279
v -0.421087 0.792820 1.043797
v -0.052893 1.013164 1.042391
v -0.481138 0.990055 0.382362
v -0.190551 0.485285 0.569865
v -0.461402 0.474962 0.173688
v -0.165677 0.822552 -0.113407
v -0.216342 0.394786 0.290549
v -0.287230 1.066743 0.195339
v -0.209394 0.428220 1.040583
v -0.109817 1.095005 0.810443
v -0.165712 1.121337 0.680976
v -0.111748 0.481256 1.030907
v -0.277705 0.344486 1.239727
v -0.369358 0.809840 1.454455
v -0.121620 0.415076 1.160604
v -0.238727 0.419784 1.172318
v -0.180653 0.511066 0.854767
v -0.283838 0.420456 1.083632
v -0.201666 0.744884 1.985699
v -0.216420 0.488298 2.037292
v -0.150890 0.898805 1.613183
v -0.201441 0.933822 1.417452
v -0.309609 0.617629 1.721389
v -0.146139 0.418111 1.783244
v -0.269706 0.808511 1.724108
v -0.374961 0.596620 1.510857
v -0.111274 0.388223 1.438673
v -0.159117 0.634721 2.276615
v -0.157944 0.831594 1.801091
v -0.244377 0.472840 1.770581
vn -0.000000 0.944651 0.328078
vn 0.211120 -0.972003 0.103141
vn 0.360438 -0.478358 -0.800786
vn 0.757132 0.521131 -0.393921
vn 0.381213 0.924443 -0.009071
vn -0.000000 -0.999632 0.027110
vn -0.000000 0.987812 0.155654
vn -0.000000 0.977421 0.211302
vn 0.949568 -0.247930 0.191967
vn 0.124665 0.942323 0.310622
vn 0.885152 -0.410043 0.219935
vn 0.000000 -0.999183 0.040408
vn 0.977412 -0.006434 0.211244
vn 0.000000 -0.942363 -0.334593
vn 0.542542 0.432705 -0.720010
vn 0.000000 -0.951573 0.307422
vn 0.577222 -0.816585 -0.002064
vn 0.566209 0.789589 -0.236552
vn -0.132277 -0.989008 0.066081
vn 0.627635 -0.769174 0.120194
vn 0.000000 0.301453 -0.953481
vn 0.000000 -0.078639 -0.996903
vn 0.045185 0.159704 -0.986130
vn 0.168979 -0.559376 -0.811507
vn 0.496123 0.064092 -0.865883
vn 0.035972 -0.253800 -0.966588
vn 0.217038 -0.048464 -0.974959
vn 0.606454 -0.494971 -0.622268
vn 0.824533 -0.006066 -0.565781
vn 0.236115 -0.880636 -0.410768
vn 0.000000 -0.970793 -0.239917
vn 0.906365 -0.422493 0.001229
vn 0.130914 -0.988479 -0.075960
vn 0.000000 0.873928 -0.486055
vn 0.953369 -0.049221 -0.297768
vn 0.384391 0.701043 -0.600652
vn 0.558787 0.743771 -0.366827
vn 0.764269 0.608887 0.212483
vn 0.959661 0.277983 -0.042140
vn 0.394292 0.873280 0.286210
vn -0.042366 -0.999062 0.008965
vn 0.000000 -0.989057 -0.147534
vn 0.571325 -0.805684 0.156402
vn 0.672139 -0.683191 0.285445
vn 0.087558 0.974225 0.207893
vn 0.191835 0.944284 0.267446
vn 0.393966 0.902248 0.175326
vn 0.868400 0.414786 0.271726
vn 0.010778 0.956787 0.290588
vn -0.000000 -0.680649 -0.732610
vn 0.712538 0.694282 -0.101303
vn -0.290303 -0.938270 0.188078
vn 0.638773 -0.713769 -0.287232
vn 0.172306 0.463126 -0.869382
vn 0.000883 -0.997476 0.070993
vn -0.000000 -0.997508 -0.070547
vn 0.381300 0.865825 -0.323970
vn -0.210953 -0.954126 -0.212467
vn 0.130641 0.943618 0.304169
vn 0.236209 0.947110 0.217226
vn 0.000000 0.991241 0.132063
vn -0.261186 -0.910253 -0.321280
vn 0.115839 -0.983492 -0.139013
vn 0.852299 0.484919 0.196064
vn -0.000000 -0.426856 0.904319
vn -0.157260 -0.952938 -0.259189
vn -0.091447 -0.963711 -0.250798
vn -0.311447 -0.937789 -0.153465
vn 0.029750 -0.999519 -0.008768
vn 0.000000 0.522176 -0.852838
vn 0.000000 0.946053 0.324011
vn 0.677435 0.643321 0.356681
vn 0.789281 -0.552011 0.268923
vn 0.000000 -0.986538 0.163531
vn 0.293175 0.921143 0.256015
vn 0.361155 0.914127 0.184227
vn -0.000000 0.971004 0.239062
vn 0.958467 -0.100344 0.266968
vn 0.343049 -0.933013 0.108649
vn -0.000000 0.871855 0.489763
vn 0.687165 0.655234 0.313802
vn 0.951150 -0.254656 0.174538
vn 0.053775 -0.998427 0.015860
vn 0.741805 0.387543 0.547298
vn 0.324021 0.889381 0.322509
vn 0.747489 -0.649334 0.140090
vn -0.211120 -0.972003 0.103141
vn -0.360438 -0.478358 -0.800786
vn -0.757132 0.521131 -0.393921
vn -0.381213 0.924443 -0.009071
vn -0.949568 -0.247930 0.191967
vn -0.124665 0.942323 0.310622
vn -0.885152 -0.410043 0.219935
vn -0.977412 -0.006434 0.211244
vn -0.542542 0.432705 -0.720010
vn -0.577222 -0.816585 -0.002064
vn -0.566209 0.789589 -0.236552
vn 0.132277 -0.989008 0.066081
vn -0.627635 -0.769174 0.120194
vn -0.045185 0.159704 -0.986130
vn -0.168979 -0.559376 -0.811507
vn -0.496123 0.064092 -0.865883
vn -0.035972 -0.253800 -0.966588
vn -0.217038 -0.048464 -0.974959
vn -0.606454 -0.494971 -0.622268
vn -0.824533 -0.006066 -0.565781
vn -0.236115 -0.880636 -0.410768
vn -0.906365 -0.422493 0.001229
vn -0.130914 -0.988479 -0.075960
vn -0.953369 -0.049221 -0.297768
vn -0.384391 0.701043 -0.600652
vn -0.558787 0.743771 -0.366827
vn -0.764269 0.608887 0.212483
vn -0.959661 0.277983 -0.042140
vn -0.394292 0.873280 0.286210
vn 0.042366 -0.999062 0.008965
vn -0.571325 -0.805684 0.156402
vn -0.672139 -0.683191 0.285445
vn -0.087558 0.974225 0.207893
vn -0.191835 0.944284 0.267446
vn -0.393966 0.902248 0.175326
vn -0.868400 0.414786 0.271726
vn -0.010778 0.956787 0.290588
vn -0.712538 0.694282 -0.101303
vn 0.290303 -0.938270 0.188078
vn -0.638773 -0.713769 -0.287232
vn -0.172306 0.463126 -0.869382
vn -0.000883 -0.997476 0.070993
vn -0.381300 0.865825 -0.323970
vn 0.210953 -0.954126 -0.212467
vn -0.130641 0.943618 0.304169
vn -0.236209 0.947110 0.217226
vn 0.261186 -0.910253 -0.321280
vn -0.115839 -0.983492 -0.139013
vn -0.852299 0.484919 0.196064
vn 0.157260 -0.952938 -0.259189
vn 0.091447 -0.963711 -0.250798
vn 0.311447 -0.937789 -0.153465
vn -0.029750 -0.999519 -0.008768
vn -0.677435 0.643321 0.356681
vn -0.789281 -0.552011 0.268923
vn -0.293175 0.921143 0.256015
vn -0.361155 0.914127 0.184227
vn -0.958467 -0.100344 0.266968
vn -0.343049 -0.933013 0.108649
vn -0.687165 0.655234 0.313802
vn -0.951150 -0.254656 0.174538
vn -0.053775 -0.998427 0.015860
vn -0.741805 0.387543 0.547298
vn -0.324021 0.889381 0.322509
vn -0.747489 -0.649334 0.140090
f 20//20 33//33 19//19
f 23//23 22//22 21//21
f 23//23 21//21 54//54
f 26//26 50//50 22//22
f 26//26 23//23 27//27
f 27//27 3//3 24//24
f 26//26 27//27 24//24
f 53//53 28//28 29//29
f 28//28 3//3 25//25
f 25//25 15//15 29//29
f 28//28 25//25 29//29
f 68//68 62//62 31//31
f 39//39 13//13 32//32
f 20//20 11//11 33//33
f 62//62 14//14 31//31
f 35//35 53//53 29//29
f 29//29 15//15 4//4
f 35//35 29//29 4//4
f 54//54 70//70 34//34
f 34//34 5//5 57//57
f 37//37 18//18 4//4
f 57//57 37//37 36//36
f 48//48 11//11 13//13
f 13//13 11//11 20//20
f 38//38 48//48 13//13
f 40//40 48//48 38//38
f 40//40 38//38 5//5
f 6//6 43//43 79//79
f 43//43 9//9 82//82
f 7//7 75//75 76//76
f 72//72 80//80 84//84
f 63//63 44//44 41//41
f 44//44 9//9 43//43
f 42//42 41//41 83//83
f 44//44 43//43 41//41
f 7//7 45//45 8//8
f 45//45 10//10 49//49
f 45//45 49//49 8//8
f 7//7 47//47 45//45
f 47//47 40//40 46//46
f 46//46 10//10 45//45
f 47//47 46//46 45//45
f 9//9 48//48 64//64
f 48//48 40//40 47//47
f 75//75 64//64 76//76
f 48//48 47//47 64//64
f 17//17 9//9 44//44
f 17//17 44//44 63//63
f 8//8 49//49 1//1
f 49//49 10//10 1//1
f 46//46 40//40 10//10
f 55//55 56//56 30//30
f 30//30 56//56 50//50
f 30//30 50//50 24//24
f 68//68 31//31 12//12
f 24//24 50//50 26//26
f 55//55 2//2 52//52
f 39//39 38//38 13//13
f 51//51 38//38 39//39
f 4//4 15//15 36//36
f 20//20 2//2 32//32
f 20//20 32//32 13//13
f 48//48 9//9 11//11
f 18//18 37//37 57//57
f 68//68 52//52 19//19
f 11//11 9//9 17//17
f 33//33 11//11 17//17
f 68//68 19//19 33//33
f 42//42 14//14 66//66
f 41//41 42//42 66//66
f 21//21 70//70 54//54
f 36//36 54//54 34//34
f 39//39 35//35 4//4
f 15//15 54//54 36//36
f 15//15 25//25 54//54
f 25//25 3//3 27//27
f 27//27 23//23 54//54
f 25//25 27//27 54//54
f 53//53 30//30 28//28
f 30//30 3//3 28//28
f 52//52 2//2 19//19
f 19//19 2//2 20//20
f 53//53 2//2 55//55
f 39//39 32//32 35//35
f 32//32 2//2 53//53
f 32//32 53//53 35//35
f 24//24 3//3 30//30
f 5//5 38//38 51//51
f 51//51 18//18 5//5
f 52//52 16//16 55//55
f 55//55 16//16 56//56
f 12//12 16//16 52//52
f 53//53 55//55 30//30
f 22//22 23//23 26//26
f 4//4 18//18 51//51
f 4//4 51//51 39//39
f 34//34 57//57 36//36
f 12//12 52//52 68//68
f 4//4 36//36 37//37
f 58//58 66//66 62//62
f 66//66 14//14 62//62
f 58//58 68//68 33//33
f 62//62 68//68 58//58
f 41//41 67//67 63//63
f 67//67 17//17 63//63
f 66//66 58//58 67//67
f 67//67 58//58 69//69
f 69//69 33//33 17//17
f 67//67 69//69 17//17
f 33//33 69//69 58//58
f 41//41 66//66 67//67
f 1//1 10//10 59//59
f 40//40 60//60 59//59
f 10//10 40//40 59//59
f 5//5 18//18 57//57
f 61//61 1//1 59//59
f 61//61 59//59 60//60
f 34//34 61//61 5//5
f 61//61 60//60 5//5
f 60//60 40//40 5//5
f 71//71 75//75 77//77
f 75//75 7//7 77//77
f 72//72 71//71 80//80
f 9//9 64//64 82//82
f 73//73 79//79 86//86
f 73//73 65//65 74//74
f 72//72 78//78 81//81
f 71//71 72//72 85//85
f 78//78 64//64 81//81
f 47//47 7//7 76//76
f 64//64 47//47 76//76
f 72//72 73//73 78//78
f 79//79 43//43 86//86
f 73//73 74//74 79//79
f 74//74 6//6 79//79
f 64//64 75//75 81//81
f 75//75 71//71 85//85
f 64//64 78//78 82//82
f 78//78 43//43 82//82
f 43//43 6//6 83//83
f 41//41 43//43 83//83
f 6//6 42//42 83//83
f 65//65 73//73 84//84
f 73//73 72//72 84//84
f 80//80 65//65 84//84
f 72//72 81//81 85//85
f 81//81 75//75 85//85
f 43//43 78//78 86//86
f 78//78 73//73 86//86
f 98//98 109//109 99//99
f 21//21 22//22 100//100
f 127//127 21//21 100//100
f 22//22 50//50 103//103
f 104//104 100//100 103//103
f 101//101 88//88 104//104
f 101//101 104//104 103//103
f 106//106 105//105 126//126
f 102//102 88//88 105//105
f 106//106 95//95 102//102
f 106//106 102//102 105//105
f 31//31 133//133 138//138
f 108//108 94//94 114//114
f 109//109 93//93 99//99
f 31//31 14//14 133//133
f 106//106 126//126 110//110
f 89//89 95//95 106//106
f 89//89 106//106 110//110
f 34//34 70//70 127//127
f 129//129 90//90 34//34
f 89//89 97//97 112//112
f 111//111 112//112 129//129
f 94//94 93//93 122//122
f 99//99 93//93 94//94
f 94//94 122//122 113//113
f 113//113 122//122 115//115
f 90//90 113//113 115//115
f 145//145 117//117 6//6
f 147//147 91//91 117//117
f 143//143 142//142 7//7
f 149//149 80//80 140//140
f 116//116 118//118 134//134
f 117//117 91//91 118//118
f 148//148 116//116 42//42
f 116//116 117//117 118//118
f 8//8 119//119 7//7
f 123//123 92//92 119//119
f 8//8 123//123 119//119
f 119//119 121//121 7//7
f 120//120 115//115 121//121
f 119//119 92//92 120//120
f 119//119 120//120 121//121
f 135//135 122//122 91//91
f 121//121 115//115 122//122
f 143//143 135//135 142//142
f 135//135 121//121 122//122
f 118//118 91//91 96//96
f 134//134 118//118 96//96
f 1//1 123//123 8//8
f 1//1 92//92 123//123
f 92//92 115//115 120//120
f 107//107 56//56 128//128
f 50//50 56//56 107//107
f 101//101 50//50 107//107
f 12//12 31//31 138//138
f 103//103 50//50 101//101
f 125//125 87//87 128//128
f 94//94 113//113 114//114
f 114//114 113//113 124//124
f 111//111 95//95 89//89
f 108//108 87//87 99//99
f 94//94 108//108 99//99
f 93//93 91//91 122//122
f 129//129 112//112 97//97
f 98//98 125//125 138//138
f 96//96 91//91 93//93
f 96//96 93//93 109//109
f 109//109 98//98 138//138
f 136//136 14//14 42//42
f 136//136 42//42 116//116
f 127//127 70//70 21//21
f 34//34 127//127 111//111
f 89//89 110//110 114//114
f 111//111 127//127 95//95
f 127//127 102//102 95//95
f 104//104 88//88 102//102
f 127//127 100//100 104//104
f 127//127 104//104 102//102
f 105//105 107//107 126//126
f 105//105 88//88 107//107
f 98//98 87//87 125//125
f 99//99 87//87 98//98
f 128//128 87//87 126//126
f 110//110 108//108 114//114
f 126//126 87//87 108//108
f 110//110 126//126 108//108
f 107//107 88//88 101//101
f 124//124 113//113 90//90
f 90//90 97//97 124//124
f 128//128 16//16 125//125
f 56//56 16//16 128//128
f 125//125 16//16 12//12
f 107//107 128//128 126//126
f 103//103 100//100 22//22
f 124//124 97//97 89//89
f 114//114 124//124 89//89
f 111//111 129//129 34//34
f 138//138 125//125 12//12
f 112//112 111//111 89//89
f 133//133 136//136 130//130
f 133//133 14//14 136//136
f 109//109 138//138 130//130
f 130//130 138//138 133//133
f 134//134 137//137 116//116
f 134//134 96//96 137//137
f 137//137 130//130 136//136
f 139//139 130//130 137//137
f 96//96 109//109 139//139
f 96//96 139//139 137//137
f 130//130 139//139 109//109
f 137//137 136//136 116//116
f 131//131 92//92 1//1
f 131//131 132//132 115//115
f 131//131 115//115 92//92
f 129//129 97//97 90//90
f 131//131 1//1 61//61
f 132//132 131//131 61//61
f 90//90 61//61 34//34
f 90//90 132//132 61//61
f 90//90 115//115 132//132
f 77//77 142//142 71//71
f 77//77 7//7 142//142
f 80//80 71//71 140//140
f 147//147 135//135 91//91
f 151//151 145//145 141//141
f 74//74 65//65 141//141
f 146//146 144//144 140//140
f 150//150 140//140 71//71
f 146//146 135//135 144//144
f 143//143 7//7 121//121
f 143//143 121//121 135//135
f 144//144 141//141 140//140
f 151//151 117//117 145//145
f 145//145 74//74 141//141
f 145//145 6//6 74//74
f 146//146 142//142 135//135
f 150//150 71//71 142//142
f 147//147 144//144 135//135
f 147//147 117//117 144//144
f 148//148 6//6 117//117
f 148//148 117//117 116//116
f 148//148 42//42 6//6
f 149//149 141//141 65//65
f 149//149 140//140 141//141
f 149//149 65//65 80//80
f 150//150 146//146 140//140
f 150//150 142//142 146//146
f 151//151 144//144 117//117
f 151//151 141//141 144//144
