# OBJ Exported from DrPetter's Sculptris
# symmetry 0
usemtl (null)
s 0
v 0.114747 0.616665 -0.446623
v 0.195282 0.630893 -0.361563
v 0.141128 0.794524 -0.266757
v 0.020106 0.641258 -0.015235
v 0.206581 0.695532 -0.292304
v 0.036244 0.814070 -0.360011
v 0.143730 0.731523 -0.383816
v 0.221111 0.574227 -0.260496
v 0.002974 0.848310 -0.214173
v 0.199926 0.683449 -0.162514
v 0.009102 0.773827 -0.073477
v 0.113769 0.786821 -0.145229
v 0.113423 0.708348 -0.068901
v 0.001927 0.392925 -0.324244
v -0.008256 0.602313 -0.481496
v 0.165373 0.513569 -0.367671
v 0.039571 0.480443 -0.434339
v 0.099681 0.436149 -0.354328
v 0.016821 0.384834 -0.205900
v 0.169201 0.514961 -0.130611
v 0.051708 0.503195 -0.049933
v 0.132937 0.605346 -0.060908
v 0.135701 0.429968 -0.250067
v 0.074631 0.425088 -0.135459
v -0.216700 0.595734 -0.357455
v 0.024629 0.720142 -0.456014
v -0.077918 0.828493 -0.323482
v -0.116167 0.671795 -0.449917
v -0.073052 0.774729 -0.408809
v -0.127283 0.819446 -0.241044
v -0.180843 0.751793 -0.336406
v -0.123534 0.697591 -0.060151
v -0.197671 0.744759 -0.187468
v -0.102390 0.801688 -0.136556
v -0.106892 0.520581 -0.438639
v -0.156918 0.445319 -0.316805
v -0.060179 0.439226 -0.395647
v -0.242096 0.660471 -0.249043
v -0.217033 0.614831 -0.135590
v -0.236087 0.548780 -0.239897
v -0.105314 0.543615 -0.045046
v -0.085960 0.393297 -0.222747
v -0.043879 0.422492 -0.115486
v -0.173021 0.469402 -0.158588
vn 0.519352 -0.013674 -0.854451
vn 0.867227 0.047462 -0.495647
vn 0.636840 0.767818 -0.069925
vn 0.091218 0.106183 0.990154
vn 0.924073 0.343586 -0.167444
vn 0.211244 0.856727 -0.470526
vn 0.634663 0.503447 -0.586297
vn 0.978614 -0.202149 -0.038088
vn 0.070068 0.988008 0.137587
vn 0.891446 0.273855 0.361010
vn 0.061322 0.675463 0.734840
vn 0.518717 0.744048 0.421100
vn 0.515693 0.397637 0.758911
vn 0.037451 -0.947716 -0.316910
vn 0.001990 -0.072595 -0.997359
vn 0.743033 -0.427493 -0.514929
vn 0.208893 -0.550889 -0.808013
vn 0.457619 -0.766523 -0.450585
vn 0.129474 -0.978811 0.158637
vn 0.777456 -0.408559 0.478166
vn 0.242188 -0.459112 0.854728
vn 0.610517 -0.050067 0.790419
vn 0.628624 -0.777542 -0.016111
vn 0.375360 -0.794140 0.477962
vn -0.861671 -0.090992 -0.499244
vn 0.144436 0.442310 -0.885155
vn -0.266553 0.910014 -0.317527
vn -0.460262 0.220947 -0.859850
vn -0.258913 0.676373 -0.689553
vn -0.496844 0.867100 0.035812
vn -0.735683 0.561364 -0.379001
vn -0.479296 0.345206 0.806913
vn -0.793550 0.540914 0.278729
vn -0.379885 0.789698 0.481731
vn -0.425049 -0.379201 -0.821913
vn -0.632228 -0.713440 -0.302144
vn -0.226155 -0.748069 -0.623896
vn -0.980702 0.193959 -0.024564
vn -0.863218 -0.013234 0.504658
vn -0.950377 -0.310631 0.017082
vn -0.396701 -0.297253 0.868486
vn -0.333148 -0.938631 0.089354
vn -0.155975 -0.796649 0.583971
vn -0.692441 -0.615369 0.376624
f 8//8 2//2 5//5
f 26//26 1//1 15//15
f 2//2 1//1 7//7
f 5//5 2//2 7//7
f 1//1 26//26 7//7
f 5//5 7//7 3//3
f 7//7 6//6 3//3
f 26//26 6//6 7//7
f 5//5 3//3 10//10
f 5//5 10//10 8//8
f 3//3 6//6 9//9
f 9//9 12//12 3//3
f 22//22 10//10 13//13
f 12//12 13//13 10//10
f 12//12 10//10 3//3
f 13//13 11//11 4//4
f 13//13 12//12 11//11
f 9//9 11//11 12//12
f 1//1 17//17 15//15
f 23//23 16//16 8//8
f 1//1 2//2 16//16
f 8//8 16//16 2//2
f 23//23 14//14 18//18
f 1//1 16//16 17//17
f 18//18 16//16 23//23
f 14//14 17//17 18//18
f 16//16 18//18 17//17
f 23//23 8//8 20//20
f 10//10 22//22 20//20
f 10//10 20//20 8//8
f 13//13 4//4 22//22
f 21//21 43//43 24//24
f 19//19 24//24 43//43
f 23//23 19//19 14//14
f 24//24 19//19 23//23
f 4//4 21//21 22//22
f 21//21 20//20 22//22
f 21//21 24//24 20//20
f 23//23 20//20 24//24
f 26//26 29//29 6//6
f 29//29 26//26 28//28
f 28//28 35//35 25//25
f 15//15 28//28 26//26
f 27//27 9//9 6//6
f 27//27 30//30 9//9
f 28//28 25//25 31//31
f 6//6 29//29 27//27
f 31//31 27//27 29//29
f 27//27 31//31 30//30
f 28//28 31//31 29//29
f 32//32 41//41 4//4
f 34//34 32//32 11//11
f 11//11 32//32 4//4
f 25//25 38//38 31//31
f 38//38 33//33 31//31
f 32//32 33//33 39//39
f 39//39 33//33 38//38
f 9//9 34//34 11//11
f 9//9 30//30 34//34
f 31//31 33//33 30//30
f 33//33 34//34 30//30
f 34//34 33//33 32//32
f 15//15 35//35 28//28
f 37//37 35//35 17//17
f 35//35 15//15 17//17
f 25//25 36//36 40//40
f 14//14 36//36 37//37
f 14//14 37//37 17//17
f 42//42 36//36 14//14
f 25//25 35//35 36//36
f 36//36 35//35 37//37
f 40//40 38//38 25//25
f 44//44 40//40 36//36
f 44//44 39//39 40//40
f 40//40 39//39 38//38
f 41//41 32//32 39//39
f 21//21 4//4 41//41
f 19//19 42//42 14//14
f 42//42 19//19 43//43
f 39//39 44//44 41//41
f 21//21 41//41 43//43
f 36//36 42//42 44//44
f 43//43 44//44 42//42
f 44//44 43//43 41//41
