# OBJ Exported from DrPetter's Sculptris
# symmetry 0
usemtl (null)
s 0
v 0.015302 -0.037506 0.215825
v 0.259594 -0.463625 -0.192407
v -0.000448 0.613107 -0.541457
v 0.199426 0.023440 0.105732
v 0.304772 -0.157151 -0.165160
v 0.030869 -0.418160 -0.446444
v 0.038238 -0.549828 0.243616
v 0.123987 -0.506334 -0.373927
v 0.233987 -0.178010 0.095589
v -0.007445 0.305604 0.332886
v 0.043887 -0.069103 -0.644266
v -0.000951 0.735634 -0.187277
v 0.121639 0.099534 0.191665
v 0.257994 0.283853 0.122554
v 0.289359 -0.000867 -0.015746
v 0.327965 0.299899 -0.138040
v 0.227481 -0.253418 -0.323710
v 0.219208 0.104667 -0.477463
v 0.135495 -0.223920 -0.458410
v 0.243614 0.418037 -0.354161
v 0.327910 0.062854 -0.148203
v 0.312937 0.081764 -0.279396
v 0.143854 -0.129271 0.178853
v 0.035105 -0.709993 -0.372753
v 0.209610 -0.417441 0.196525
v 0.224513 -0.705258 0.060610
v 0.284229 -0.388727 -0.018520
v 0.121449 -0.711603 0.189306
v -0.034562 -0.771044 0.202569
v 0.098866 -0.764901 -0.333453
v 0.175647 -0.650547 -0.284737
v 0.214034 -0.934807 0.004569
v 0.183480 -0.876908 0.106928
v 0.062275 -0.894804 -0.365960
v 0.048829 -0.689002 0.235758
v 0.150433 -1.055883 0.058701
v -0.025377 -1.102459 0.083307
v -0.032924 -1.028892 -0.387970
v 0.224839 -0.860982 -0.136997
v 0.010702 -1.629627 -0.594163
v 0.089374 -0.920312 0.149688
v 0.272130 -1.511384 -0.181646
v 0.172878 -1.128599 -0.074960
v 0.110554 -1.253160 -0.046018
v 0.001955 -1.854928 -0.250808
v 0.151387 -1.054086 -0.375817
v -0.250504 -0.549986 -0.201240
v -0.079654 -0.322202 -0.474330
v -0.245568 -0.082338 0.078827
v -0.235652 0.277362 0.131447
v -0.333718 0.203647 -0.092170
v -0.272901 -0.145869 -0.284338
v -0.203375 -0.017536 -0.496805
v -0.292023 0.274811 -0.336143
v -0.309857 0.039027 -0.206186
v 0.062278 -0.282988 0.233134
v -0.106600 0.037453 0.176252
v -0.300069 -0.189792 -0.105146
v -0.111065 -0.325720 0.222273
v -0.132130 -0.631391 0.188463
v -0.158639 -0.767081 0.154599
v -0.109042 -0.726168 0.183232
v -0.072179 -0.580146 0.251527
v -0.060105 -0.629110 -0.369463
v -0.171621 -0.420413 -0.354658
v -0.222511 -0.965785 0.041963
v -0.239146 -0.558811 0.041780
v -0.186875 -0.834174 -0.320540
v -0.145058 -1.245739 -0.079034
v -0.253961 -0.830806 -0.123125
v -0.119525 -1.091847 -0.311511
v -0.212588 -1.127555 -0.159876
v -0.207508 -1.151604 -0.284287
v -0.125135 -0.917724 0.152264
v -0.266061 -0.956618 -0.234436
v -0.272864 -1.560410 -0.243961
v -0.012052 -1.450091 -0.090081
v -0.165649 -1.285723 -0.404555
v -0.256323 -0.800952 -0.229036
vn 0.062108 -0.047578 0.996935
vn 0.941198 -0.129395 -0.312095
vn 0.003102 0.477486 -0.878634
vn 0.743709 -0.037021 0.667477
vn 0.988902 -0.111016 -0.098735
vn 0.188642 -0.344490 -0.919642
vn 0.144556 -0.039633 0.988703
vn 0.593801 -0.203527 -0.778445
vn 0.827674 0.085000 0.554734
vn -0.013598 0.101854 0.994706
vn 0.169080 -0.236806 -0.956731
vn -0.053995 0.974984 0.215619
vn 0.565904 -0.116758 0.816162
vn 0.793212 0.134805 0.593838
vn 0.929887 -0.039409 0.365729
vn 0.968399 0.240154 0.067304
vn 0.848942 -0.174576 -0.498818
vn 0.799146 -0.027354 -0.600515
vn 0.695785 -0.272947 -0.664367
vn 0.863360 0.368160 -0.345062
vn 0.996406 -0.050808 0.067775
vn 0.956022 -0.033475 -0.291380
vn 0.540630 0.095235 0.835853
vn 0.246447 -0.090125 -0.964957
vn 0.676287 -0.011336 0.736551
vn 0.930249 -0.119225 0.347019
vn 0.983657 -0.069066 0.166278
vn 0.514224 -0.212441 0.830929
vn -0.129492 -0.266151 0.955194
vn 0.447897 0.018402 -0.893896
vn 0.773938 -0.074792 -0.628829
vn 0.954817 -0.200011 0.219819
vn 0.751215 -0.200727 0.628796
vn 0.275313 0.088394 -0.957282
vn 0.210038 -0.252383 0.944556
vn 0.659234 -0.397856 0.638060
vn -0.086196 -0.460104 0.883671
vn -0.232757 0.138037 -0.962689
vn 0.995327 -0.070963 -0.065482
vn -0.036135 -0.164981 -0.985635
vn 0.288817 -0.320515 0.902139
vn 0.871874 -0.248022 0.422280
vn 0.869717 -0.202788 0.449966
vn 0.480135 -0.357671 0.800963
vn -0.017761 -0.877276 0.479657
vn 0.557311 0.148597 -0.816898
vn -0.965817 -0.040346 -0.256066
vn -0.417721 -0.345952 -0.840135
vn -0.818773 -0.038425 0.572830
vn -0.771593 0.192804 0.606194
vn -0.981408 0.151325 0.118063
vn -0.935738 -0.126399 -0.329268
vn -0.727211 -0.106917 -0.678036
vn -0.933093 0.194857 -0.302270
vn -0.981000 -0.075440 -0.178738
vn 0.166765 0.078897 0.982835
vn -0.508555 -0.077850 0.857503
vn -0.994497 -0.096576 0.040600
vn -0.442498 0.047922 0.895488
vn -0.619670 -0.105991 0.777673
vn -0.596980 -0.114092 0.794102
vn -0.352188 -0.160363 0.922089
vn -0.302261 -0.120448 0.945585
vn -0.267156 -0.147599 -0.952282
vn -0.713828 -0.181602 -0.676365
vn -0.833758 -0.268445 0.482477
vn -0.926576 -0.038389 0.374143
vn -0.600266 -0.027838 -0.799316
vn -0.650986 -0.320327 0.688192
vn -0.993406 -0.044441 0.105683
vn -0.566127 0.161755 -0.808292
vn -0.967879 -0.145066 0.205346
vn -0.831655 0.054584 -0.552604
vn -0.406710 -0.306590 0.860575
vn -0.971605 -0.084380 -0.221054
vn -0.961817 -0.217235 0.166486
vn -0.087846 -0.383163 0.919494
vn -0.710082 0.249478 -0.658440
vn -0.946584 0.060925 -0.316651
f 1//1 13//13 10//10
f 4//4 14//14 13//13
f 12//12 10//10 14//14
f 13//13 14//14 10//10
f 4//4 9//9 15//15
f 4//4 15//15 14//14
f 21//21 16//16 15//15
f 12//12 14//14 16//16
f 15//15 16//16 14//14
f 2//2 17//17 5//5
f 5//5 15//15 27//27
f 9//9 27//27 15//15
f 2//2 5//5 27//27
f 6//6 11//11 19//19
f 3//3 18//18 11//11
f 17//17 19//19 18//18
f 11//11 18//18 19//19
f 22//22 20//20 16//16
f 3//3 12//12 20//20
f 16//16 20//20 12//12
f 3//3 20//20 18//18
f 17//17 18//18 22//22
f 20//20 22//22 18//18
f 5//5 21//21 15//15
f 5//5 17//17 22//22
f 21//21 22//22 16//16
f 5//5 22//22 21//21
f 6//6 19//19 8//8
f 19//19 17//17 8//8
f 4//4 13//13 23//23
f 1//1 23//23 13//13
f 4//4 23//23 9//9
f 56//56 23//23 1//1
f 7//7 25//25 56//56
f 9//9 23//23 25//25
f 56//56 25//25 23//23
f 2//2 27//27 39//39
f 39//39 27//27 26//26
f 9//9 25//25 27//27
f 26//26 27//27 25//25
f 17//17 2//2 31//31
f 39//39 31//31 2//2
f 8//8 17//17 31//31
f 31//31 39//39 46//46
f 28//28 7//7 35//35
f 32//32 26//26 33//33
f 30//30 31//31 46//46
f 26//26 25//25 28//28
f 25//25 7//7 28//28
f 28//28 29//29 41//41
f 31//31 30//30 8//8
f 39//39 26//26 32//32
f 26//26 28//28 33//33
f 41//41 33//33 28//28
f 34//34 30//30 46//46
f 38//38 24//24 34//34
f 29//29 28//28 35//35
f 7//7 29//29 35//35
f 30//30 24//24 8//8
f 24//24 6//6 8//8
f 32//32 36//36 43//43
f 46//46 38//38 34//34
f 34//34 24//24 30//30
f 41//41 36//36 33//33
f 36//36 32//32 33//33
f 43//43 36//36 44//44
f 44//44 42//42 43//43
f 44//44 37//37 77//77
f 36//36 37//37 44//44
f 77//77 42//42 44//44
f 42//42 39//39 43//43
f 37//37 36//36 41//41
f 29//29 37//37 41//41
f 40//40 42//42 45//45
f 39//39 32//32 43//43
f 42//42 77//77 45//45
f 39//39 42//42 46//46
f 42//42 40//40 46//46
f 40//40 38//38 46//46
f 10//10 57//57 1//1
f 50//50 10//10 12//12
f 10//10 50//50 57//57
f 50//50 49//49 57//57
f 49//49 51//51 58//58
f 51//51 50//50 12//12
f 50//50 51//51 49//49
f 48//48 11//11 6//6
f 11//11 53//53 3//3
f 53//53 48//48 65//65
f 48//48 53//53 11//11
f 51//51 54//54 55//55
f 54//54 12//12 3//3
f 12//12 54//54 51//51
f 53//53 54//54 3//3
f 54//54 52//52 55//55
f 52//52 53//53 65//65
f 53//53 52//52 54//54
f 55//55 52//52 58//58
f 51//51 55//55 58//58
f 59//59 56//56 1//1
f 57//57 59//59 1//1
f 64//64 48//48 6//6
f 58//58 52//52 47//47
f 56//56 59//59 7//7
f 63//63 59//59 60//60
f 58//58 67//67 49//49
f 47//47 67//67 58//58
f 59//59 67//67 60//60
f 67//67 59//59 49//49
f 52//52 65//65 47//47
f 59//59 57//57 49//49
f 65//65 48//48 64//64
f 63//63 7//7 59//59
f 62//62 29//29 60//60
f 62//62 61//61 29//29
f 62//62 60//60 61//61
f 60//60 67//67 61//61
f 38//38 68//68 64//64
f 65//65 68//68 47//47
f 64//64 68//68 65//65
f 63//63 60//60 29//29
f 63//63 29//29 7//7
f 71//71 68//68 38//38
f 47//47 79//79 70//70
f 47//47 70//70 67//67
f 64//64 6//6 24//24
f 74//74 29//29 61//61
f 72//72 66//66 70//70
f 47//47 68//68 79//79
f 64//64 24//24 38//38
f 75//75 70//70 79//79
f 74//74 61//61 66//66
f 67//67 66//66 61//61
f 67//67 70//70 66//66
f 69//69 66//66 72//72
f 72//72 70//70 75//75
f 72//72 76//76 69//69
f 77//77 37//37 69//69
f 69//69 37//37 66//66
f 68//68 73//73 75//75
f 69//69 76//76 77//77
f 72//72 73//73 76//76
f 74//74 66//66 37//37
f 74//74 37//37 29//29
f 45//45 76//76 40//40
f 72//72 75//75 73//73
f 45//45 77//77 76//76
f 78//78 76//76 73//73
f 78//78 40//40 76//76
f 78//78 38//38 40//40
f 68//68 71//71 73//73
f 79//79 68//68 75//75
f 71//71 78//78 73//73
f 71//71 38//38 78//78
