# OBJ Exported from DrPetter's Sculptris
# symmetry 0
usemtl (null)
s 0
v -0.000981 -0.030351 0.932633
v 0.005863 -0.905636 0.081612
v -0.005575 0.003999 0.326646
v 0.015161 -0.367001 -0.117737
v 0.071179 -0.445801 0.189263
v -0.008590 -0.573970 0.581943
v 0.007547 0.140676 0.790180
v -0.015463 -0.410088 0.708505
v 0.006237 -0.829318 0.261434
v 0.079047 -0.443621 0.265555
v 0.018066 -0.075917 0.229042
v 0.053823 -0.122494 0.282205
v -0.009166 0.097826 0.835746
v 0.009713 0.275191 0.569087
v 0.016740 0.114373 0.761209
v -0.016730 -0.150747 0.024364
v -0.001945 -0.829156 -0.086609
v -0.024908 -0.539156 -0.167645
v 0.049676 -0.682563 -0.003015
v 0.090045 -0.779133 0.075721
v 0.107814 -0.562579 0.059588
v 0.062813 -0.481181 0.108736
v 0.076920 -0.409601 0.073157
v -0.028752 -0.483971 0.653346
v 0.008279 -0.863848 0.154856
v -0.004161 -0.678235 0.495519
v 0.052478 -0.648362 0.400988
v -0.001860 -0.083248 0.212356
v 0.011332 -0.105706 0.176177
v 0.024822 -0.148831 0.104057
v 0.028337 -0.092203 0.215875
v 0.047329 -0.162872 0.170193
v 0.066029 -0.226630 0.388769
v 0.027673 -0.110714 0.188392
v -0.001465 0.055621 0.900414
v -0.004522 0.112253 0.807619
v -0.012405 0.139928 0.387334
v 0.007725 0.226117 0.795654
v 0.066083 -0.047303 0.804904
v 0.019076 0.068166 0.796325
v 0.009047 0.108676 0.788497
v 0.045161 0.024026 0.433321
v 0.043972 0.030814 0.650217
v 0.000458 -0.049149 0.271610
v 0.036015 -0.093873 0.231842
v 0.021300 -0.019173 0.308908
v -0.010977 -0.114361 0.147277
v -0.013979 -0.232829 -0.065370
v 0.042777 -0.274244 -0.057255
v 0.000435 -0.892588 0.000929
v -0.002817 -0.719039 -0.148244
v 0.003168 -0.453551 -0.170350
v -0.003803 -0.601198 -0.158938
v 0.026333 -0.204746 0.006896
v 0.050760 -0.332870 -0.000793
v 0.044605 -0.234700 0.062020
v 0.060888 -0.286942 0.157856
v 0.070199 -0.366531 0.157213
v 0.067608 -0.364853 0.221406
v 0.071345 -0.818408 -0.004631
v 0.052502 -0.847316 0.079448
v 0.047978 -0.685545 -0.068542
v 0.064876 -0.745909 -0.060804
v 0.128622 -0.708010 0.114648
v 0.104219 -0.729154 0.024227
v 0.057457 -0.670399 0.081981
v 0.047503 -0.427284 -0.066406
v 0.033701 -0.528569 -0.102023
v 0.051132 -0.477024 -0.017005
v 0.067974 -0.468206 0.039241
v 0.058696 -0.626554 -0.099693
v 0.075628 -0.473783 0.145516
v 0.088029 -0.500767 0.118103
v 0.075975 -0.580689 0.114745
v 0.109642 -0.530770 0.103762
v 0.054245 -0.496683 0.062913
v 0.074523 -0.526428 0.080300
v 0.104694 -0.647759 -0.032833
v 0.059239 -0.554654 0.005030
v 0.083977 -0.619339 0.037955
v 0.069292 -0.424018 0.145024
v 0.070124 -0.443991 0.086218
v 0.071675 -0.401789 0.040427
v 0.072823 -0.391799 0.103649
v 0.091523 -0.425420 0.071516
v 0.072177 -0.418053 0.079320
v -0.007232 -0.236968 0.816820
v -0.018442 -0.523822 0.626574
v 0.000234 -0.773063 0.381656
v 0.073453 -0.221822 0.630275
v 0.015241 -0.496076 0.635585
v 0.130102 -0.691016 0.189481
v 0.073307 -0.766697 0.178937
v 0.097247 -0.502153 0.163457
v 0.077248 -0.552114 0.270062
v 0.070260 -0.543983 0.198441
v 0.078491 -0.636706 0.180122
v 0.050204 -0.551409 0.532568
v 0.110520 -0.648444 0.280748
v 0.053530 -0.739435 0.299014
v 0.048723 -0.396371 0.634953
v 0.071288 -0.464711 0.424856
v -0.055411 -0.478886 0.006798
v -0.074593 -0.586542 0.210995
v -0.071028 -0.389450 0.281749
v -0.026390 -0.101586 0.208140
v -0.060156 -0.115714 0.386528
v -0.049350 -0.329791 0.043899
v -0.052713 -0.664930 0.025043
v -0.088205 -0.778498 0.092446
v -0.068050 -0.440191 -0.048787
v -0.050828 -0.559764 -0.012422
v -0.091028 -0.478075 0.146786
v -0.063473 -0.469297 0.108636
v -0.079302 -0.385059 0.157173
v -0.054950 -0.388994 0.035536
v -0.012020 -0.094051 0.204534
v -0.045643 -0.113713 0.249682
v -0.067367 -0.091008 0.788484
v -0.035497 0.026203 0.753401
v -0.021232 0.116496 0.735599
v -0.043783 0.087095 0.490911
v -0.033162 -0.009167 0.343637
v -0.029142 0.151622 0.642724
v -0.052146 0.024025 0.600074
v -0.015282 -0.038989 0.292252
v -0.015897 -0.066691 0.241224
v -0.029684 -0.062529 0.266897
v -0.042296 -0.162059 0.135530
v -0.060825 -0.261597 0.167413
v -0.050053 -0.243417 0.036943
v -0.038612 -0.320952 -0.049083
v -0.064313 -0.422809 0.169068
v -0.071792 -0.416713 0.145855
v -0.074229 -0.817935 0.003932
v -0.046742 -0.851258 0.086651
v -0.055954 -0.671452 -0.054843
v -0.071572 -0.739931 -0.049308
v -0.130749 -0.703151 0.146431
v -0.109016 -0.723161 0.046317
v -0.063869 -0.664730 0.111602
v -0.036068 -0.410261 -0.084943
v -0.048934 -0.481272 -0.097803
v -0.055935 -0.520977 0.018488
v -0.028943 -0.548151 -0.084823
v -0.061785 -0.616293 -0.090317
v -0.070837 -0.457755 0.137860
v -0.082521 -0.521073 0.050101
v -0.048817 -0.484246 0.080280
v -0.064277 -0.489149 0.108976
v -0.115430 -0.604888 -0.008274
v -0.085965 -0.578591 0.103207
v -0.070277 -0.440508 0.107858
v -0.050153 -0.374673 0.038497
v -0.055635 -0.391030 -0.000096
v -0.073694 -0.379673 0.064111
v -0.062374 -0.236415 0.673285
v -0.058104 -0.356279 0.655215
v -0.060507 -0.159738 0.573045
v -0.035245 -0.508794 0.593239
v -0.039970 -0.442061 0.633586
v -0.069632 -0.354348 0.519834
v -0.054513 -0.457544 0.546610
v -0.056636 -0.779741 0.183392
v -0.076642 -0.509760 0.184705
v -0.049658 -0.667904 0.384934
v -0.044255 -0.573039 0.497006
v -0.080443 -0.533092 0.386499
v -0.112836 -0.682359 0.274124
v -0.047001 -0.750827 0.296089
v -0.074209 -0.440314 0.184530
vn -0.023995 -0.132392 0.990907
vn 0.059642 -0.981915 0.179681
vn -0.370648 0.550471 -0.748066
vn 0.284147 0.430655 -0.856619
vn 0.966798 0.240552 -0.086234
vn -0.233092 -0.679865 0.695307
vn 0.459317 0.220372 0.860502
vn -0.263739 -0.488846 0.831548
vn 0.035604 -0.927625 0.371813
vn 0.998887 0.046128 0.009851
vn 0.361286 0.791117 -0.493565
vn 0.968304 0.213506 -0.129628
vn -0.136017 0.856717 0.497530
vn 0.019764 0.971232 -0.237315
vn 0.961910 0.090372 0.257996
vn -0.243045 0.849970 -0.467419
vn -0.028050 -0.634218 -0.772645
vn -0.524212 -0.201535 -0.827397
vn 0.995006 -0.085661 -0.051243
vn 0.886340 -0.460779 0.045647
vn 0.959713 0.104983 -0.260632
vn 0.922222 0.244950 -0.299174
vn 0.892997 0.321739 0.314706
vn -0.619753 -0.467799 0.630135
vn 0.061839 -0.896028 0.439670
vn -0.084028 -0.719739 0.689141
vn 0.878622 -0.333219 0.342035
vn -0.089858 0.865881 -0.492113
vn 0.336083 0.824790 -0.454719
vn 0.711155 0.628970 -0.314095
vn 0.669410 0.640157 -0.376947
vn 0.937850 0.287673 -0.194117
vn 0.997183 0.071137 -0.023772
vn 0.695761 0.607942 -0.382522
vn -0.092733 0.704439 0.703680
vn -0.098526 0.664079 0.741143
vn -0.289496 0.556422 -0.778836
vn 0.079247 0.429934 0.899376
vn 0.961742 0.079240 0.262247
vn 0.902209 0.343504 0.260813
vn 0.888970 0.159155 0.429421
vn 0.962325 0.220384 -0.159255
vn 0.988420 0.144942 0.044919
vn -0.071660 0.811639 -0.579748
vn 0.827825 0.480665 -0.289252
vn 0.543721 0.610724 -0.575660
vn -0.280183 0.885808 -0.369922
vn -0.227651 0.487515 -0.842914
vn 0.712343 0.314062 -0.627640
vn 0.007520 -0.951458 -0.307686
vn -0.040605 -0.258204 -0.965237
vn 0.058866 0.261132 -0.963507
vn -0.092425 0.077334 -0.992712
vn 0.766311 0.528057 -0.365954
vn 0.975542 0.111804 -0.189255
vn 0.967499 0.217058 -0.129734
vn 0.991149 0.119772 -0.057253
vn 0.998429 0.044779 0.033692
vn 0.997582 0.064440 -0.026042
vn 0.832143 -0.483080 -0.272345
vn 0.804881 -0.584769 0.101054
vn 0.882730 -0.285983 -0.372829
vn 0.873969 0.001927 -0.485978
vn 0.978825 0.129420 -0.158594
vn 0.929723 0.211368 -0.301560
vn 0.945133 0.278036 -0.171519
vn 0.953938 0.049145 -0.295951
vn 0.899374 0.041545 -0.435202
vn 0.972883 -0.034775 -0.228670
vn 0.970936 -0.224586 -0.082731
vn 0.842998 0.011336 -0.537798
vn 0.891970 0.397249 -0.215831
vn 0.705237 0.605816 -0.368277
vn 0.922410 -0.326760 0.205884
vn 0.952705 0.264372 -0.149866
vn 0.997664 0.003773 -0.068214
vn 0.665131 0.582261 -0.467519
vn 0.955953 -0.267293 -0.121279
vn 0.935415 0.253240 -0.246716
vn 0.954451 -0.287829 0.078599
vn 0.999819 0.003801 -0.018624
vn 0.952724 -0.211343 0.218292
vn 0.964295 0.175717 -0.198137
vn 0.998363 0.024907 0.051492
vn 0.901613 0.146856 0.406851
vn 0.807279 0.040829 0.588756
vn -0.040329 -0.503510 0.863048
vn -0.388356 -0.620234 0.681535
vn 0.003408 -0.820367 0.571827
vn 0.990258 -0.054064 0.128322
vn 0.525429 -0.495119 0.691941
vn 0.995971 0.047479 0.076075
vn 0.796878 -0.551240 0.247225
vn 0.987910 0.137933 0.070776
vn 0.984739 0.135822 -0.108815
vn 0.989103 -0.115526 0.091265
vn 0.910660 0.370701 -0.182424
vn 0.865498 -0.337775 0.369894
vn 0.985345 -0.063157 0.158449
vn 0.819615 -0.480064 0.312683
vn 0.896047 -0.213099 0.389473
vn 0.995354 -0.016782 0.094810
vn -0.989422 -0.082294 -0.119462
vn -0.984349 0.165840 -0.059611
vn -0.996886 0.078437 -0.008084
vn -0.702848 0.608874 -0.367801
vn -0.991957 0.110375 -0.061949
vn -0.976154 0.101949 -0.191649
vn -0.999014 -0.015351 -0.041659
vn -0.868006 -0.485537 0.104015
vn -0.977989 0.108483 -0.178240
vn -0.822869 0.388480 -0.414692
vn -0.906748 0.372569 -0.197486
vn -0.941789 -0.056970 -0.331343
vn -0.990109 -0.126227 0.061239
vn -0.590104 0.749975 -0.298855
vn -0.486364 0.756850 -0.436611
vn -0.934255 0.300155 -0.192550
vn -0.976465 0.019708 0.214774
vn -0.973943 0.201700 0.103696
vn -0.954671 0.194635 0.225213
vn -0.974437 0.206434 -0.088639
vn -0.819142 0.403316 -0.407851
vn -0.973023 0.220207 0.068809
vn -0.992428 0.107754 0.058963
vn -0.402038 0.737363 -0.542826
vn -0.356742 0.780552 -0.513297
vn -0.675784 0.606075 -0.419509
vn -0.904373 0.389379 -0.174623
vn -0.986172 0.145513 -0.079319
vn -0.970900 0.160444 -0.177794
vn -0.828907 0.183286 -0.528506
vn -0.999144 -0.030130 0.028353
vn -0.931266 -0.314782 0.183457
vn -0.845686 -0.482265 -0.228551
vn -0.755160 -0.631308 0.176590
vn -0.931265 -0.229588 -0.282905
vn -0.899325 0.010038 -0.437167
vn -0.995880 0.017347 -0.089010
vn -0.949194 0.200608 -0.242460
vn -0.906589 0.356451 -0.225919
vn -0.823674 0.299058 -0.481794
vn -0.950954 -0.040277 -0.306700
vn -0.872673 0.080041 -0.481701
vn -0.973640 -0.008607 -0.227928
vn -0.855915 0.145671 -0.496174
vn -0.931217 0.248550 -0.266565
vn -0.807330 0.492303 -0.325354
vn -0.958429 0.198252 -0.205209
vn -0.738138 0.510629 -0.440920
vn -0.975775 -0.032083 -0.216411
vn -0.980487 -0.158878 0.115770
vn -0.977927 -0.206290 -0.033205
vn -0.927033 0.219242 -0.304208
vn -0.948197 0.304430 -0.090803
vn -0.913594 0.252001 -0.319127
vn -0.984572 -0.081148 0.155027
vn -0.947199 -0.174876 0.268761
vn -0.998098 0.061643 -0.000097
vn -0.921695 -0.296626 0.249983
vn -0.941515 -0.200245 0.271019
vn -0.997890 -0.017797 0.062436
vn -0.967364 -0.169050 0.188758
vn -0.749707 -0.610490 0.255426
vn -0.981794 -0.084055 0.170338
vn -0.856693 -0.356751 0.372566
vn -0.915563 -0.279549 0.289131
vn -0.987672 -0.044887 0.149966
vn -0.934571 -0.246695 0.256355
vn -0.765268 -0.566031 0.306550
vn -0.839761 0.487051 -0.239963
f 34//34 29//29 11//11
f 47//47 28//28 29//29
f 11//11 29//29 28//28
f 34//34 30//30 29//29
f 34//34 32//32 30//30
f 57//57 56//56 32//32
f 32//32 56//56 30//30
f 12//12 57//57 32//32
f 12//12 33//33 57//57
f 57//57 33//33 59//59
f 31//31 34//34 11//11
f 31//31 45//45 34//34
f 12//12 32//32 45//45
f 34//34 45//45 32//32
f 1//1 39//39 35//35
f 43//43 40//40 39//39
f 13//13 35//35 40//40
f 39//39 40//40 35//35
f 7//7 36//36 41//41
f 13//13 40//40 36//36
f 15//15 41//41 40//40
f 36//36 40//40 41//41
f 43//43 15//15 40//40
f 3//3 37//37 46//46
f 14//14 42//42 37//37
f 37//37 42//42 46//46
f 7//7 15//15 38//38
f 14//14 38//38 43//43
f 15//15 43//43 38//38
f 42//42 43//43 33//33
f 14//14 43//43 42//42
f 7//7 41//41 15//15
f 11//11 28//28 44//44
f 31//31 11//11 45//45
f 3//3 46//46 44//44
f 11//11 44//44 46//46
f 11//11 46//46 45//45
f 42//42 12//12 46//46
f 45//45 46//46 12//12
f 33//33 12//12 42//42
f 16//16 47//47 30//30
f 29//29 30//30 47//47
f 49//49 48//48 54//54
f 16//16 54//54 48//48
f 16//16 30//30 54//54
f 56//56 54//54 30//30
f 4//4 49//49 55//55
f 49//49 56//56 55//55
f 56//56 57//57 55//55
f 49//49 54//54 56//56
f 5//5 81//81 59//59
f 58//58 59//59 81//81
f 2//2 50//50 61//61
f 17//17 60//60 50//50
f 20//20 61//61 60//60
f 50//50 60//60 61//61
f 19//19 63//63 62//62
f 17//17 51//51 63//63
f 62//62 63//63 51//51
f 97//97 64//64 66//66
f 20//20 65//65 64//64
f 19//19 66//66 65//65
f 64//64 65//65 66//66
f 17//17 63//63 60//60
f 19//19 65//65 63//63
f 20//20 60//60 65//65
f 63//63 65//65 60//60
f 4//4 67//67 52//52
f 69//69 68//68 67//67
f 18//18 52//52 68//68
f 67//67 68//68 52//52
f 51//51 53//53 71//71
f 18//18 68//68 53//53
f 79//79 71//71 68//68
f 53//53 68//68 71//71
f 79//79 68//68 69//69
f 94//94 73//73 72//72
f 22//22 72//72 73//73
f 21//21 75//75 74//74
f 94//94 74//74 75//75
f 70//70 76//76 79//79
f 22//22 77//77 76//76
f 21//21 79//79 77//77
f 76//76 77//77 79//79
f 94//94 75//75 73//73
f 21//21 77//77 75//75
f 22//22 73//73 77//77
f 75//75 77//77 73//73
f 51//51 71//71 62//62
f 79//79 78//78 71//71
f 19//19 62//62 78//78
f 71//71 78//78 62//62
f 70//70 79//79 69//69
f 97//97 66//66 74//74
f 19//19 80//80 66//66
f 21//21 74//74 80//80
f 66//66 80//80 74//74
f 21//21 80//80 79//79
f 19//19 78//78 80//80
f 79//79 80//80 78//78
f 58//58 57//57 59//59
f 5//5 72//72 81//81
f 22//22 81//81 72//72
f 70//70 82//82 76//76
f 22//22 76//76 82//82
f 58//58 81//81 84//84
f 22//22 82//82 81//81
f 84//84 81//81 82//82
f 4//4 55//55 67//67
f 57//57 83//83 55//55
f 69//69 67//67 83//83
f 55//55 83//83 67//67
f 69//69 83//83 70//70
f 23//23 85//85 83//83
f 70//70 83//83 85//85
f 57//57 84//84 83//83
f 23//23 83//83 84//84
f 57//57 58//58 84//84
f 70//70 85//85 82//82
f 23//23 86//86 85//85
f 84//84 82//82 86//86
f 85//85 86//86 82//82
f 23//23 84//84 86//86
f 1//1 87//87 39//39
f 43//43 39//39 90//90
f 87//87 90//90 39//39
f 8//8 101//101 87//87
f 102//102 90//90 101//101
f 101//101 90//90 87//87
f 102//102 33//33 90//90
f 43//43 90//90 33//33
f 6//6 91//91 88//88
f 24//24 88//88 91//91
f 24//24 91//91 8//8
f 8//8 91//91 101//101
f 2//2 61//61 25//25
f 20//20 93//93 61//61
f 61//61 93//93 25//25
f 97//97 92//92 64//64
f 20//20 64//64 93//93
f 92//92 93//93 64//64
f 25//25 93//93 9//9
f 9//9 93//93 100//100
f 10//10 94//94 5//5
f 5//5 94//94 72//72
f 10//10 95//95 96//96
f 94//94 96//96 74//74
f 95//95 97//97 96//96
f 74//74 96//96 97//97
f 10//10 96//96 94//94
f 26//26 98//98 6//6
f 9//9 100//100 89//89
f 26//26 89//89 27//27
f 100//100 27//27 89//89
f 26//26 27//27 98//98
f 27//27 102//102 98//98
f 95//95 99//99 97//97
f 93//93 92//92 99//99
f 97//97 99//99 92//92
f 10//10 102//102 95//95
f 27//27 99//99 102//102
f 102//102 99//99 95//95
f 27//27 100//100 99//99
f 93//93 99//99 100//100
f 6//6 98//98 91//91
f 102//102 101//101 98//98
f 98//98 101//101 91//91
f 10//10 5//5 59//59
f 10//10 33//33 102//102
f 10//10 59//59 33//33
f 127//127 117//117 106//106
f 117//117 28//28 47//47
f 28//28 117//117 127//127
f 106//106 117//117 47//47
f 118//118 130//130 107//107
f 130//130 105//105 107//107
f 127//127 106//106 128//128
f 106//106 118//118 128//128
f 35//35 119//119 1//1
f 119//119 120//120 159//159
f 120//120 35//35 13//13
f 35//35 120//120 119//119
f 121//121 36//36 7//7
f 36//36 120//120 13//13
f 121//121 120//120 36//36
f 120//120 125//125 159//159
f 125//125 120//120 121//121
f 123//123 37//37 3//3
f 37//37 122//122 14//14
f 122//122 123//123 107//107
f 123//123 122//122 37//37
f 38//38 121//121 7//7
f 124//124 38//38 14//14
f 38//38 124//124 121//121
f 159//159 125//125 107//107
f 122//122 124//124 14//14
f 125//125 122//122 107//107
f 122//122 125//125 124//124
f 125//125 121//121 124//124
f 44//44 126//126 3//3
f 126//126 127//127 128//128
f 127//127 44//44 28//28
f 44//44 127//127 126//126
f 159//159 107//107 105//105
f 126//126 123//123 3//3
f 123//123 126//126 128//128
f 118//118 123//123 128//128
f 123//123 118//118 107//107
f 106//106 129//129 118//118
f 129//129 47//47 16//16
f 47//47 129//129 106//106
f 132//132 48//48 49//49
f 48//48 131//131 16//16
f 131//131 132//132 108//108
f 132//132 131//131 48//48
f 129//129 130//130 118//118
f 130//130 131//131 108//108
f 131//131 129//129 16//16
f 129//129 131//131 130//130
f 132//132 49//49 4//4
f 133//133 115//115 134//134
f 105//105 115//115 133//133
f 156//156 115//115 130//130
f 130//130 115//115 105//105
f 136//136 50//50 2//2
f 50//50 135//135 17//17
f 135//135 136//136 110//110
f 136//136 135//135 50//50
f 137//137 138//138 109//109
f 138//138 51//51 17//17
f 51//51 138//138 137//137
f 141//141 139//139 104//104
f 139//139 140//140 110//110
f 140//140 141//141 109//109
f 141//141 140//140 139//139
f 135//135 138//138 17//17
f 138//138 140//140 109//109
f 140//140 135//135 110//110
f 135//135 140//140 138//138
f 52//52 142//142 4//4
f 142//142 143//143 111//111
f 143//143 52//52 18//18
f 52//52 143//143 142//142
f 144//144 103//103 112//112
f 146//146 53//53 51//51
f 53//53 145//145 18//18
f 145//145 146//146 112//112
f 146//146 145//145 53//53
f 143//143 103//103 111//111
f 103//103 145//145 112//112
f 145//145 143//143 18//18
f 143//143 145//145 103//103
f 147//147 150//150 113//113
f 150//150 147//147 114//114
f 148//148 152//152 113//113
f 148//148 149//149 103//103
f 149//149 150//150 114//114
f 148//148 150//150 149//149
f 150//150 148//148 113//113
f 137//137 146//146 51//51
f 146//146 151//151 112//112
f 151//151 137//137 109//109
f 137//137 151//151 146//146
f 144//144 148//148 103//103
f 148//148 144//144 112//112
f 152//152 141//141 104//104
f 141//141 152//152 109//109
f 151//151 148//148 112//112
f 152//152 151//151 109//109
f 151//151 152//152 148//148
f 130//130 108//108 156//156
f 133//133 147//147 171//171
f 147//147 153//153 114//114
f 153//153 133//133 134//134
f 133//133 153//153 147//147
f 149//149 153//153 103//103
f 153//153 149//149 114//114
f 115//115 153//153 134//134
f 142//142 132//132 4//4
f 132//132 155//155 108//108
f 155//155 142//142 111//111
f 142//142 155//155 132//132
f 103//103 155//155 111//111
f 155//155 156//156 116//116
f 156//156 155//155 103//103
f 155//155 154//154 108//108
f 154//154 155//155 116//116
f 153//153 156//156 103//103
f 156//156 153//153 115//115
f 156//156 154//154 116//116
f 154//154 156//156 108//108
f 105//105 133//133 171//171
f 119//119 87//87 1//1
f 157//157 119//119 159//159
f 119//119 157//157 87//87
f 87//87 158//158 8//8
f 158//158 157//157 162//162
f 87//87 157//157 158//158
f 157//157 159//159 162//162
f 88//88 160//160 6//6
f 160//160 88//88 24//24
f 8//8 161//161 24//24
f 161//161 158//158 163//163
f 158//158 161//161 8//8
f 161//161 160//160 24//24
f 160//160 161//161 163//163
f 163//163 158//158 162//162
f 25//25 136//136 2//2
f 136//136 164//164 110//110
f 25//25 164//164 136//136
f 139//139 169//169 104//104
f 164//164 139//139 110//110
f 139//139 164//164 169//169
f 9//9 164//164 25//25
f 170//170 164//164 9//9
f 171//171 113//113 105//105
f 147//147 113//113 171//171
f 105//105 165//165 104//104
f 152//152 165//165 113//113
f 104//104 165//165 152//152
f 113//113 165//165 105//105
f 6//6 167//167 26//26
f 89//89 170//170 9//9
f 166//166 89//89 26//26
f 89//89 166//166 170//170
f 167//167 168//168 166//166
f 167//167 166//166 26//26
f 104//104 168//168 105//105
f 168//168 169//169 166//166
f 104//104 169//169 168//168
f 169//169 170//170 166//166
f 170//170 169//169 164//164
f 162//162 159//159 105//105
f 160//160 167//167 6//6
f 167//167 163//163 168//168
f 160//160 163//163 167//167
f 168//168 162//162 105//105
f 168//168 163//163 162//162
