# OBJ Exported from DrPetter's Sculptris
# symmetry 0
usemtl (null)
s 0
v -0.002983 0.322586 0.770303
v 0.148795 0.260883 0.837132
v 0.574695 0.118891 0.534058
v 0.113139 0.260182 0.318610
v 0.015582 -0.041872 -1.143956
v 0.299849 -0.123397 -0.146206
v -0.000030 -0.190380 0.834545
v 0.383420 -0.123003 -0.019770
v 0.261598 -0.161483 -0.040301
v 0.161867 -0.216099 0.658921
v -0.010499 0.246125 -0.060350
v 0.375820 0.015634 -0.089823
v 0.389774 0.073882 0.030272
v 0.253519 0.147545 -0.136383
v 0.329165 0.050380 -0.206502
v 0.258704 0.136420 -0.867168
v 0.320626 -0.014040 -0.508496
v 0.267057 0.098586 -0.336280
v 0.269708 0.115602 -0.508621
v 0.117004 0.186772 -0.301655
v -0.002244 0.098251 0.951986
v -0.003281 0.347648 0.535179
v -0.124562 0.271248 0.308870
v 0.227251 0.125951 0.905068
v 0.526792 -0.073169 0.398170
v 0.496378 0.136602 0.745212
v 0.441798 0.221721 0.600894
v 0.362678 0.060180 0.835939
v 0.162338 0.373278 0.635713
v 0.328077 0.315141 0.483518
v 0.328181 0.245743 0.753232
v 0.445983 -0.061562 0.158186
v 0.161911 0.228800 0.007717
v 0.467366 0.088881 0.291304
v 0.431578 0.200243 0.428844
v 0.302992 0.183980 0.208929
v 0.055530 0.263111 -0.721259
v 0.025354 -0.187086 -1.089361
v 0.359204 -0.084322 -0.732462
v 0.218743 -0.152180 -1.027675
v 0.311292 -0.081828 -0.498541
v 0.244167 -0.155770 -0.516700
v 0.197866 -0.152883 -0.192733
v 0.326797 -0.023000 -0.349627
v 0.351421 -0.046245 -0.161122
v 0.282570 -0.112314 -0.317733
v 0.182673 -0.161790 -0.385087
v -0.002954 -0.209284 0.650048
v 0.419649 -0.024308 -0.023774
v 0.336071 -0.195338 0.131761
v 0.227969 -0.089044 0.893990
v 0.429363 -0.161046 0.443446
v 0.435996 -0.110388 0.657247
v 0.279266 -0.232168 0.385403
v 0.417260 -0.157326 0.304724
v 0.304762 0.044395 -0.421375
v 0.242470 0.185906 -0.590436
v 0.163860 0.217512 -0.842819
v 0.014842 0.201431 -0.949298
v 0.172645 -0.269304 -0.756628
v 0.209892 0.065974 -0.992425
v 0.290162 -0.181561 -0.917381
v 0.132367 -0.214794 -1.031606
v 0.127905 -0.121613 -1.103390
v 0.043966 -0.270143 -0.959331
v 0.308435 0.140324 -0.684767
v 0.231192 0.215724 -0.728924
v 0.225549 0.156789 -0.494931
v 0.336222 -0.056544 -0.634010
v 0.314133 -0.138011 -0.663209
v 0.278698 -0.224397 -0.780966
v 0.178970 0.187520 -0.494178
v 0.361542 -0.018158 -0.712041
v 0.140642 0.246909 -0.719998
v 0.127368 0.045777 -1.078629
v 0.123949 -0.224409 -0.569579
v 0.210288 0.137184 -0.384552
v 0.181412 0.224245 -0.617584
v 0.364956 -0.073555 -0.868248
v 0.322711 0.036644 -0.611598
v 0.298138 0.014692 -0.942295
v 0.120071 -0.271143 -0.867832
v 0.143439 -0.253026 -0.947977
v 0.290436 -0.088563 -0.976650
v 0.236615 -0.216109 -0.659862
v 0.207298 -0.249858 -0.878166
v 0.025236 0.255614 -0.835910
v 0.203523 -0.219282 -0.971010
v 0.093895 0.228316 -0.561363
v 0.358866 0.041949 -0.788178
v 0.345125 -0.154265 -0.795349
v 0.329132 -0.090033 -0.679452
v 0.015279 0.116931 -1.072384
v 0.379509 -0.033450 -0.778480
v 0.125723 -0.039392 -1.111991
v 0.096061 0.248006 -0.811423
v 0.131408 0.154220 -0.972004
v 0.208254 -0.038834 -1.052588
v 0.086960 0.218833 -0.893608
v -0.154709 0.261805 0.834346
v -0.575938 0.113575 0.520172
v -0.390276 0.071215 0.023433
v -0.305550 -0.133851 -0.095162
v -0.390142 -0.127613 0.009762
v -0.288265 -0.167903 0.033715
v -0.165911 -0.215057 0.661477
v -0.333062 0.037298 -0.217160
v -0.322774 -0.031679 -0.509817
v -0.279335 0.081274 -0.387071
v -0.175662 0.221253 -0.004178
v -0.149540 0.175610 -0.322069
v -0.232956 0.126525 0.902362
v -0.526517 -0.073543 0.400047
v -0.505541 0.136137 0.733793
v -0.447095 0.219965 0.590189
v -0.370616 0.060627 0.830198
v -0.169409 0.372629 0.627510
v -0.332543 0.315381 0.481628
v -0.333954 0.245863 0.748403
v -0.375858 0.011270 -0.089968
v -0.447292 -0.060253 0.170416
v -0.268192 0.140890 -0.153378
v -0.466046 0.085218 0.286105
v -0.433763 0.196437 0.418292
v -0.310729 0.190216 0.201181
v -0.337064 -0.085583 -0.652893
v -0.297431 -0.106023 -0.483873
v -0.208317 -0.165989 -0.479728
v -0.182321 -0.164804 -0.072260
v -0.326124 -0.040276 -0.342207
v -0.353785 -0.054655 -0.148569
v 0.057444 -0.155456 -0.332331
v -0.269495 -0.126996 -0.275253
v -0.109580 -0.160817 -0.284109
v -0.419556 -0.026951 -0.014778
v -0.362658 -0.190165 0.176871
v -0.232015 -0.089739 0.891783
v -0.012014 -0.231497 0.430023
v -0.433859 -0.157312 0.454471
v -0.438839 -0.109363 0.653740
v -0.297884 -0.227906 0.416261
v 0.071206 -0.150554 0.031055
v -0.425886 -0.153141 0.325720
v -0.180671 -0.188916 0.166146
v -0.318132 0.017706 -0.402021
v -0.183401 0.202596 -0.528339
v -0.238016 -0.228581 -0.712152
v -0.195491 -0.209718 -0.615164
v -0.330084 -0.177497 -0.851150
v -0.231589 0.132070 -0.344668
v -0.190218 -0.182220 -1.030885
v -0.074591 -0.212777 -0.567807
v -0.298554 0.089238 -0.551715
v -0.078295 -0.237431 -1.025942
v -0.074066 0.241710 -0.862891
v 0.003506 0.259177 -0.614003
v -0.094497 -0.134916 -1.109288
v -0.076562 -0.279721 -0.900247
v -0.020836 0.223760 -0.434889
v -0.303900 -0.190536 -0.744940
v -0.332487 -0.013290 -0.612975
v -0.199850 -0.049426 -1.062628
v -0.107417 0.049383 -1.088900
v -0.308815 0.029935 -0.528840
v -0.191875 -0.257503 -0.768155
v -0.276152 -0.165845 -0.628784
v -0.247759 0.152869 -0.495486
v 0.028026 -0.275882 -0.773883
v -0.359075 0.047250 -0.667348
v -0.155227 0.240604 -0.612064
v -0.383894 -0.049308 -0.813537
v -0.034805 0.279957 -0.732738
v -0.297231 0.001900 -0.951051
v -0.079202 0.258922 -0.606184
v -0.244683 -0.220553 -0.929421
v -0.098015 0.161608 -0.981463
v -0.176896 -0.266057 -0.860405
v -0.353824 -0.139795 -0.756306
v -0.255625 -0.237417 -0.812991
v -0.117389 0.218240 -0.505452
v -0.240739 0.214386 -0.681411
v -0.164885 -0.243492 -0.688345
v -0.112091 -0.274934 -0.761174
v -0.314281 0.111170 -0.816931
v -0.315649 -0.143769 -0.697628
v -0.296485 -0.119932 -0.963645
v -0.138670 0.264566 -0.736648
v -0.318935 0.140333 -0.644827
v -0.190841 0.195843 -0.860568
v -0.373960 -0.027592 -0.681215
v -0.103395 -0.045200 -1.123624
v -0.157373 -0.250787 -0.961657
v -0.213987 0.089093 -0.978117
vn -0.004257 0.872903 0.487876
vn 0.172055 0.698847 0.694270
vn 0.946321 0.322716 -0.018188
vn 0.114609 0.964598 -0.237521
vn 0.051825 0.062190 -0.996718
vn 0.531288 -0.814762 -0.232155
vn -0.001321 -0.845640 0.533751
vn 0.702088 -0.649909 -0.291016
vn 0.176844 -0.965536 -0.190961
vn 0.152860 -0.965099 0.212646
vn -0.016180 0.994985 -0.098703
vn 0.899911 0.259401 -0.350530
vn 0.821020 0.521745 -0.231749
vn 0.583632 0.795772 -0.161616
vn 0.887422 0.418708 -0.192785
vn 0.652955 0.635756 -0.411659
vn 0.996585 0.061142 0.055489
vn 0.708068 0.705049 -0.039323
vn 0.780894 0.597237 0.183063
vn 0.351394 0.936196 -0.007648
vn -0.005830 0.189826 0.981800
vn 0.015740 0.986612 -0.162326
vn -0.098214 0.966427 -0.237429
vn 0.359626 0.292289 0.886135
vn 0.897687 -0.423249 -0.122552
vn 0.753276 0.307162 0.581573
vn 0.598334 0.796090 0.090765
vn 0.576468 0.007577 0.817084
vn 0.145059 0.982585 0.116125
vn 0.428855 0.891129 -0.148232
vn 0.458586 0.712868 0.530583
vn 0.942987 -0.245144 -0.225120
vn 0.328051 0.936206 -0.126096
vn 0.824175 0.442544 -0.353397
vn 0.624984 0.725856 -0.287277
vn 0.488840 0.830986 -0.265515
vn 0.185332 0.982638 0.008613
vn 0.061187 -0.617927 -0.783851
vn 0.928256 -0.290487 0.232291
vn 0.594692 -0.403198 -0.695537
vn 0.910107 -0.403062 0.096151
vn 0.558983 -0.805966 0.194827
vn 0.176419 -0.983334 -0.043937
vn 0.995357 -0.067638 -0.068475
vn 0.921721 -0.228406 -0.313465
vn 0.671948 -0.740122 -0.026581
vn 0.264804 -0.955144 0.132586
vn -0.002190 -0.994859 0.101249
vn 0.950927 0.067013 -0.302070
vn 0.392237 -0.903225 -0.174168
vn 0.353318 -0.491041 0.796269
vn 0.549385 -0.833746 0.055182
vn 0.649163 -0.657510 0.382450
vn 0.221580 -0.975139 0.002597
vn 0.628111 -0.765720 -0.138378
vn 0.917650 0.397386 -0.001340
vn 0.602203 0.762116 0.237762
vn 0.388644 0.854107 -0.345626
vn 0.046357 0.848811 -0.526661
vn 0.239855 -0.965567 0.100748
vn 0.585979 0.502915 -0.635377
vn 0.702280 -0.594542 -0.391565
vn 0.298692 -0.733671 -0.610336
vn 0.387443 -0.306075 -0.869601
vn 0.078856 -0.946670 -0.312405
vn 0.834026 0.549039 0.054373
vn 0.535145 0.841103 -0.078524
vn 0.618248 0.735690 0.276641
vn 0.962789 -0.180189 0.201417
vn 0.836733 -0.488509 0.247461
vn 0.603446 -0.795943 0.048240
vn 0.444025 0.863782 0.238164
vn 0.963512 0.092275 0.251257
vn 0.254540 0.966945 -0.015074
vn 0.426044 0.446668 -0.786749
vn 0.155725 -0.949177 0.273518
vn 0.571548 0.816526 0.081349
vn 0.323765 0.928944 0.179552
vn 0.941501 -0.104521 -0.320393
vn 0.952641 0.249440 0.173939
vn 0.746104 0.345294 -0.569298
vn 0.139968 -0.985614 -0.094728
vn 0.261586 -0.914064 -0.309935
vn 0.757158 -0.102673 -0.645113
vn 0.502188 -0.817920 0.280737
vn 0.389146 -0.900941 -0.192019
vn 0.099116 0.947277 -0.304702
vn 0.466225 -0.758948 -0.454568
vn 0.209290 0.962356 0.173401
vn 0.917327 0.381123 -0.115135
vn 0.862666 -0.505769 0.002175
vn 0.886011 -0.350520 0.303514
vn 0.047814 0.649784 -0.758614
vn 0.998884 0.010734 0.045990
vn 0.427132 0.115058 -0.896839
vn 0.228966 0.947246 -0.224275
vn 0.388527 0.719981 -0.575043
vn 0.632108 0.131548 -0.763633
vn 0.229245 0.866616 -0.443197
vn -0.180660 0.702297 0.688579
vn -0.950906 0.306356 -0.043870
vn -0.850423 0.468820 -0.238722
vn -0.452089 -0.860024 -0.236591
vn -0.697149 -0.659992 -0.279987
vn -0.185191 -0.962662 -0.197449
vn -0.156513 -0.963514 0.217127
vn -0.928875 0.316907 -0.191731
vn -0.998214 0.001243 0.059726
vn -0.840118 0.542314 0.009926
vn -0.342285 0.928857 -0.141653
vn -0.385352 0.922051 0.036409
vn -0.371216 0.298415 0.879288
vn -0.894918 -0.427989 -0.126280
vn -0.773378 0.306815 0.554753
vn -0.612380 0.787747 0.066675
vn -0.589604 0.010046 0.807630
vn -0.147814 0.981124 0.124684
vn -0.448529 0.882409 -0.142046
vn -0.470381 0.716609 0.514989
vn -0.920949 0.184869 -0.343040
vn -0.948452 -0.225144 -0.223046
vn -0.620228 0.766301 -0.167629
vn -0.839101 0.411494 -0.355784
vn -0.646802 0.705209 -0.290390
vn -0.518489 0.811532 -0.269418
vn -0.894669 -0.360900 0.263283
vn -0.816306 -0.568442 0.102556
vn -0.375618 -0.909873 0.176186
vn -0.097782 -0.989997 -0.101706
vn -0.977012 -0.203716 -0.062834
vn -0.897285 -0.308818 -0.315453
vn 0.020225 -0.990090 0.138970
vn -0.550450 -0.833333 -0.050617
vn -0.080930 -0.994596 0.065033
vn -0.953229 0.036772 -0.300004
vn -0.449277 -0.878747 -0.161101
vn -0.360150 -0.489915 0.793899
vn -0.000481 -0.999462 -0.032808
vn -0.569464 -0.819847 0.059678
vn -0.659039 -0.649913 0.378524
vn -0.261148 -0.965087 0.020236
vn -0.008567 -0.995797 -0.091191
vn -0.648271 -0.750634 -0.127647
vn 0.010440 -0.989542 -0.143868
vn -0.955588 0.289263 -0.056380
vn -0.422218 0.875404 0.235373
vn -0.438898 -0.862209 0.252913
vn -0.325263 -0.892104 0.313617
vn -0.782323 -0.593670 -0.188483
vn -0.611199 0.791165 0.022193
vn -0.496485 -0.532520 -0.685511
vn -0.083305 -0.959232 0.270065
vn -0.896989 0.345792 0.275387
vn -0.150911 -0.810846 -0.565469
vn -0.176499 0.897322 -0.404550
vn 0.126119 0.978625 0.162442
vn -0.286487 -0.384272 -0.877644
vn -0.075262 -0.986827 -0.143204
vn -0.026065 0.990362 0.136028
vn -0.679085 -0.701029 0.217720
vn -0.942649 0.002124 0.333777
vn -0.611811 0.061026 -0.788647
vn -0.359463 0.456844 -0.813683
vn -0.959166 0.234967 0.157450
vn -0.289782 -0.947393 0.135916
vn -0.666136 -0.694134 0.272838
vn -0.679039 0.697704 0.228285
vn 0.016469 -0.993712 0.110746
vn -0.950610 0.241022 0.195572
vn -0.329144 0.920516 0.210508
vn -0.985331 -0.029954 -0.168006
vn 0.000740 0.998317 -0.057994
vn -0.763474 0.277400 -0.583229
vn -0.146839 0.970996 0.188690
vn -0.546720 -0.751001 -0.370263
vn -0.297635 0.749621 -0.591169
vn -0.285039 -0.954344 -0.089335
vn -0.840759 -0.495143 0.218993
vn -0.495589 -0.868555 -0.001840
vn -0.260806 0.933720 0.245252
vn -0.560780 0.827585 0.025071
vn -0.215686 -0.931123 0.294089
vn -0.115202 -0.980679 0.158102
vn -0.773038 0.557678 -0.302337
vn -0.749989 -0.554230 0.361034
vn -0.764093 -0.242397 -0.597834
vn -0.310968 0.945875 -0.092838
vn -0.834101 0.532710 0.143158
vn -0.488252 0.773933 -0.403284
vn -0.942393 -0.117349 0.313248
vn -0.357286 0.054228 -0.932420
vn -0.300810 -0.876495 -0.375858
vn -0.573139 0.544110 -0.612745
f 45//45 15//15 12//12
f 13//13 12//12 15//15
f 13//13 15//15 14//14
f 37//37 74//74 96//96
f 11//11 20//20 159//159
f 11//11 33//33 20//20
f 15//15 18//18 14//14
f 33//33 14//14 20//20
f 159//159 20//20 89//89
f 89//89 20//20 72//72
f 1//1 21//21 2//2
f 24//24 2//2 21//21
f 55//55 25//25 52//52
f 3//3 53//53 25//25
f 25//25 53//53 52//52
f 31//31 26//26 27//27
f 3//3 27//27 26//26
f 3//3 26//26 53//53
f 31//31 28//28 26//26
f 26//26 28//28 53//53
f 1//1 29//29 22//22
f 22//22 29//29 4//4
f 27//27 30//30 31//31
f 4//4 29//29 30//30
f 2//2 31//31 29//29
f 30//30 29//29 31//31
f 1//1 2//2 29//29
f 2//2 24//24 31//31
f 28//28 31//31 24//24
f 13//13 49//49 12//12
f 12//12 49//49 45//45
f 13//13 32//32 49//49
f 11//11 23//23 4//4
f 11//11 4//4 33//33
f 36//36 33//33 4//4
f 55//55 32//32 25//25
f 13//13 34//34 32//32
f 3//3 25//25 34//34
f 32//32 34//34 25//25
f 13//13 14//14 36//36
f 3//3 35//35 27//27
f 13//13 36//36 34//34
f 3//3 34//34 35//35
f 36//36 35//35 34//34
f 14//14 33//33 36//36
f 27//27 35//35 30//30
f 4//4 30//30 36//36
f 35//35 36//36 30//30
f 58//58 67//67 16//16
f 80//80 69//69 73//73
f 64//64 98//98 40//40
f 64//64 5//5 95//95
f 18//18 15//15 56//56
f 46//46 41//41 44//44
f 44//44 41//41 17//17
f 46//46 42//42 41//41
f 17//17 41//41 69//69
f 62//62 79//79 91//91
f 40//40 62//62 88//88
f 60//60 85//85 76//76
f 47//47 43//43 132//132
f 47//47 46//46 43//43
f 46//46 6//6 43//43
f 15//15 45//45 44//44
f 6//6 46//46 45//45
f 45//45 46//46 44//44
f 46//46 47//47 42//42
f 42//42 47//47 76//76
f 32//32 55//55 50//50
f 49//49 32//32 8//8
f 32//32 50//50 8//8
f 43//43 142//142 132//132
f 43//43 6//6 9//9
f 43//43 9//9 142//142
f 45//45 49//49 8//8
f 8//8 50//50 9//9
f 142//142 9//9 50//50
f 45//45 8//8 6//6
f 9//9 6//6 8//8
f 7//7 51//51 21//21
f 21//21 51//51 24//24
f 7//7 48//48 10//10
f 138//138 10//10 48//48
f 28//28 24//24 51//51
f 7//7 10//10 51//51
f 53//53 54//54 52//52
f 28//28 51//51 53//53
f 54//54 53//53 10//10
f 51//51 10//10 53//53
f 54//54 10//10 138//138
f 54//54 55//55 52//52
f 50//50 54//54 142//142
f 138//138 142//142 54//54
f 50//50 55//55 54//54
f 138//138 144//144 142//142
f 70//70 42//42 85//85
f 47//47 132//132 76//76
f 15//15 44//44 56//56
f 44//44 17//17 56//56
f 61//61 97//97 16//16
f 79//79 81//81 90//90
f 68//68 57//57 72//72
f 72//72 20//20 77//77
f 74//74 78//78 67//67
f 16//16 67//67 66//66
f 14//14 18//18 77//77
f 63//63 83//83 65//65
f 168//168 65//65 82//82
f 85//85 42//42 76//76
f 60//60 168//168 82//82
f 79//79 39//39 91//91
f 62//62 71//71 86//86
f 77//77 20//20 14//14
f 62//62 40//40 84//84
f 74//74 37//37 89//89
f 18//18 56//56 19//19
f 71//71 60//60 86//86
f 66//66 19//19 80//80
f 19//19 56//56 80//80
f 56//56 17//17 80//80
f 65//65 38//38 63//63
f 58//58 96//96 74//74
f 168//168 76//76 152//152
f 69//69 39//39 73//73
f 63//63 38//38 64//64
f 38//38 5//5 64//64
f 83//83 82//82 65//65
f 67//67 57//57 66//66
f 19//19 66//66 57//57
f 78//78 57//57 67//67
f 99//99 96//96 58//58
f 97//97 58//58 16//16
f 91//91 39//39 70//70
f 39//39 69//69 92//92
f 79//79 90//90 94//94
f 90//90 80//80 73//73
f 98//98 64//64 95//95
f 76//76 132//132 152//152
f 77//77 18//18 19//19
f 86//86 60//60 82//82
f 68//68 19//19 57//57
f 80//80 90//90 66//66
f 90//90 16//16 66//66
f 19//19 68//68 77//77
f 68//68 72//72 77//77
f 72//72 57//57 78//78
f 39//39 79//79 94//94
f 83//83 63//63 88//88
f 63//63 40//40 88//88
f 61//61 16//16 81//81
f 60//60 71//71 85//85
f 71//71 70//70 85//85
f 168//168 60//60 76//76
f 70//70 39//39 92//92
f 97//97 59//59 99//99
f 89//89 78//78 74//74
f 67//67 58//58 74//74
f 62//62 86//86 88//88
f 86//86 83//83 88//88
f 75//75 97//97 61//61
f 61//61 81//81 98//98
f 71//71 91//91 70//70
f 71//71 62//62 91//91
f 78//78 89//89 72//72
f 82//82 83//83 86//86
f 70//70 92//92 69//69
f 17//17 69//69 80//80
f 41//41 42//42 70//70
f 69//69 41//41 70//70
f 75//75 5//5 93//93
f 97//97 99//99 58//58
f 81//81 79//79 84//84
f 79//79 62//62 84//84
f 90//90 81//81 16//16
f 90//90 73//73 94//94
f 73//73 39//39 94//94
f 5//5 75//75 95//95
f 75//75 98//98 95//95
f 63//63 64//64 40//40
f 99//99 87//87 96//96
f 87//87 37//37 96//96
f 75//75 93//93 97//97
f 93//93 59//59 97//97
f 81//81 84//84 98//98
f 84//84 40//40 98//98
f 59//59 87//87 99//99
f 98//98 75//75 61//61
f 120//120 107//107 131//131
f 107//107 120//120 102//102
f 122//122 107//107 102//102
f 164//164 145//145 109//109
f 164//164 108//108 145//145
f 110//110 122//122 125//125
f 159//159 111//111 11//11
f 111//111 110//110 11//11
f 122//122 109//109 107//107
f 111//111 122//122 110//110
f 150//150 122//122 111//111
f 150//150 109//109 122//122
f 180//180 111//111 159//159
f 146//146 111//111 180//180
f 100//100 21//21 1//1
f 21//21 100//100 112//112
f 139//139 113//113 143//143
f 113//113 140//140 101//101
f 139//139 140//140 113//113
f 115//115 114//114 119//119
f 114//114 115//115 101//101
f 140//140 114//114 101//101
f 114//114 116//116 119//119
f 140//140 116//116 114//114
f 23//23 22//22 4//4
f 22//22 117//117 1//1
f 23//23 117//117 22//22
f 119//119 118//118 115//115
f 118//118 117//117 23//23
f 117//117 119//119 100//100
f 119//119 117//117 118//118
f 117//117 100//100 1//1
f 119//119 112//112 100//100
f 112//112 119//119 116//116
f 120//120 135//135 102//102
f 131//131 135//135 120//120
f 135//135 121//121 102//102
f 110//110 23//23 11//11
f 23//23 110//110 125//125
f 113//113 121//121 143//143
f 121//121 123//123 102//102
f 123//123 113//113 101//101
f 113//113 123//123 121//121
f 125//125 122//122 102//102
f 115//115 124//124 101//101
f 123//123 125//125 102//102
f 124//124 123//123 101//101
f 123//123 124//124 125//125
f 118//118 124//124 115//115
f 125//125 118//118 23//23
f 118//118 125//125 124//124
f 189//189 181//181 187//187
f 169//169 153//153 188//188
f 158//158 154//154 65//65
f 177//177 192//192 158//158
f 191//191 5//5 157//157
f 145//145 107//107 109//109
f 130//130 127//127 133//133
f 108//108 127//127 130//130
f 127//127 128//128 133//133
f 126//126 127//127 108//108
f 178//178 171//171 149//149
f 148//148 166//166 147//147
f 142//142 129//129 134//134
f 129//129 133//133 134//134
f 129//129 103//103 133//133
f 130//130 131//131 107//107
f 131//131 133//133 103//103
f 130//130 133//133 131//131
f 128//128 134//134 133//133
f 152//152 134//134 128//128
f 134//134 132//132 142//142
f 136//136 143//143 121//121
f 104//104 121//121 135//135
f 104//104 136//136 121//121
f 142//142 144//144 129//129
f 105//105 103//103 129//129
f 144//144 105//105 129//129
f 104//104 135//135 131//131
f 105//105 136//136 104//104
f 136//136 105//105 144//144
f 103//103 104//104 131//131
f 104//104 103//103 105//105
f 21//21 137//137 7//7
f 112//112 137//137 21//21
f 106//106 48//48 7//7
f 48//48 106//106 138//138
f 137//137 112//112 116//116
f 137//137 106//106 7//7
f 139//139 141//141 140//140
f 140//140 137//137 116//116
f 106//106 140//140 141//141
f 140//140 106//106 137//137
f 138//138 106//106 141//141
f 139//139 143//143 141//141
f 144//144 141//141 136//136
f 141//141 144//144 138//138
f 141//141 143//143 136//136
f 148//148 128//128 166//166
f 152//152 132//132 134//134
f 145//145 130//130 107//107
f 145//145 108//108 130//130
f 184//184 173//173 171//171
f 167//167 111//111 146//146
f 181//181 170//170 187//187
f 188//188 181//181 184//184
f 167//167 109//109 150//150
f 189//189 184//184 181//181
f 161//161 108//108 164//164
f 152//152 128//128 148//148
f 165//165 182//182 147//147
f 178//178 126//126 171//171
f 167//167 146//146 181//181
f 179//179 160//160 149//149
f 175//175 149//149 186//186
f 159//159 89//89 156//156
f 150//150 111//111 167//167
f 186//186 151//151 175//175
f 165//165 183//183 182//182
f 180//180 159//159 174//174
f 179//179 147//147 160//160
f 167//167 153//153 109//109
f 154//154 38//38 65//65
f 174//174 172//172 187//187
f 184//184 189//189 193//193
f 172//172 156//156 37//37
f 37//37 156//156 89//89
f 169//169 164//164 153//153
f 157//157 151//151 162//162
f 157//157 38//38 154//154
f 157//157 5//5 38//38
f 158//158 65//65 168//168
f 172//172 174//174 156//156
f 187//187 172//172 155//155
f 185//185 126//126 178//178
f 190//190 169//169 171//171
f 161//161 164//164 169//169
f 189//189 176//176 193//193
f 191//191 157//157 162//162
f 164//164 109//109 153//153
f 165//165 147//147 179//179
f 167//167 181//181 188//188
f 170//170 181//181 146//146
f 184//184 171//171 169//169
f 190//190 171//171 126//126
f 192//192 154//154 158//158
f 192//192 151//151 154//154
f 182//182 183//183 152//152
f 183//183 158//158 168//168
f 189//189 155//155 176//176
f 174//174 159//159 156//156
f 166//166 160//160 147//147
f 148//148 147//147 182//182
f 188//188 153//153 167//167
f 155//155 59//59 176//176
f 174//174 170//170 180//180
f 174//174 187//187 170//170
f 152//152 183//183 168//168
f 193//193 176//176 163//163
f 182//182 152//152 148//148
f 162//162 173//173 193//193
f 184//184 169//169 188//188
f 177//177 179//179 175//175
f 177//177 165//165 179//179
f 175//175 179//179 149//149
f 185//185 178//178 160//160
f 178//178 149//149 160//160
f 165//165 177//177 183//183
f 180//180 170//170 146//146
f 161//161 126//126 108//108
f 166//166 128//128 127//127
f 166//166 127//127 126//126
f 184//184 193//193 173//173
f 93//93 5//5 163//163
f 185//185 166//166 126//126
f 185//185 160//160 166//166
f 187//187 155//155 189//189
f 186//186 171//171 173//173
f 186//186 149//149 171//171
f 190//190 161//161 169//169
f 190//190 126//126 161//161
f 191//191 163//163 5//5
f 191//191 162//162 163//163
f 157//157 154//154 151//151
f 177//177 158//158 183//183
f 192//192 175//175 151//151
f 192//192 177//177 175//175
f 172//172 87//87 155//155
f 172//172 37//37 87//87
f 176//176 93//93 163//163
f 176//176 59//59 93//93
f 162//162 186//186 173//173
f 162//162 151//151 186//186
f 155//155 87//87 59//59
f 193//193 163//163 162//162
