# OBJ Exported from DrPetter's Sculptris
# symmetry 0
usemtl (null)
s 0
v 1.170392 0.190142 -0.306866
v 0.000000 -0.556978 0.545913
v 0.000000 -0.910276 -0.087627
v 2.795200 -0.071958 -1.354865
v 1.870429 -0.184494 -0.679314
v 1.253193 -0.830483 -0.797697
v 0.000000 -0.869475 -0.817236
v 1.261464 -0.293305 -0.163045
v 0.605354 -0.812394 0.208092
v 1.659075 -0.062350 -1.762836
v 1.647598 -0.917773 -1.312569
v 1.672818 0.055428 -0.810802
v 1.338821 0.209543 -0.553699
v 1.443898 0.015549 -0.492497
v 1.903761 0.012809 -1.308650
v 0.756708 0.172657 -1.313524
v 0.000000 0.077583 0.721178
v 0.000000 0.959747 0.203344
v 0.725958 -0.035744 0.579058
v 1.611596 -0.356525 -0.480796
v 1.457543 -0.167184 -0.408324
v 1.187292 -0.010934 -0.203210
v 0.614993 0.739000 0.214125
v 0.554110 0.829830 -0.371661
v 1.006220 0.461495 -0.369080
v 0.958540 0.293031 0.092976
v 0.577489 0.367882 0.546770
v 0.849141 0.162218 0.381843
v 0.000000 -0.554084 -1.159347
v 1.767028 -0.585113 -0.663368
v 0.741242 -0.800007 -0.559959
v 1.056886 -0.860504 -1.021703
v 0.733200 -0.678966 -1.450949
v 0.950589 -0.432613 0.212605
v 0.986743 -0.051278 0.157668
v 0.240669 -0.211909 -1.406693
v 0.758120 -0.221407 -1.642000
v 0.263314 -0.682897 -1.160021
v 0.000000 0.065661 -1.161091
v 0.342405 -0.559502 -1.378882
v 1.210573 -0.584941 -1.797973
v 0.000000 -0.275489 -1.243664
v 0.385125 0.228996 -1.139590
v 0.615120 -0.778405 -1.046416
v 0.138441 -0.434000 -1.303362
v 0.853059 0.341590 -0.929884
v 1.063060 0.008637 -1.537381
v 0.510141 0.046924 -1.426779
v 2.388407 -0.626183 -2.149614
v 0.544040 -0.441352 -1.534919
v 1.175804 -0.833200 -1.453516
v 2.386708 -0.938935 -1.262441
v 1.714286 -0.817739 -0.918591
v 1.423478 -0.876817 -1.001527
v 2.300558 -0.479088 -0.842763
v 2.922983 -0.139399 -1.954088
v 1.182836 -0.530098 -0.185272
v 2.102162 -0.104913 -1.047457
v 1.305619 0.087232 -1.293056
v 0.800587 -0.817239 -0.871847
v 0.790068 -0.491803 -1.632792
v 0.475875 -0.686207 -1.268539
v 1.264534 -0.241875 -1.810153
v 1.359929 0.161817 -1.077729
v 0.879586 -0.814438 -1.246505
v 0.178921 -0.570178 -1.256106
v 0.976330 -0.686360 -0.143085
v 1.859244 -0.400630 -0.691096
v 1.716491 -0.840247 -1.768810
v 1.300395 -0.691531 -0.517566
v 0.000000 -0.137329 -1.231323
v 0.762986 0.030071 -1.501229
v 0.985708 0.137362 -1.250385
v 0.000000 0.550570 -0.716955
v 0.267508 0.054532 -1.304864
v 1.696285 -0.385682 -2.036643
v 1.428777 -0.502392 -0.383886
v 3.195373 -0.605942 -1.847584
v 2.174626 -0.964295 -1.691410
v 2.144871 -0.728573 -0.938544
v 1.373773 0.241525 -0.849072
v 2.354662 -0.228197 -0.995496
v 2.992777 -0.615345 -1.187741
v 2.297489 -0.094397 -1.900655
v 2.515611 -0.070513 -1.650113
v 2.485689 -0.720508 -1.031094
v 2.663849 -0.316217 -1.041215
v 2.698287 -0.901545 -1.794844
v 2.900414 -0.876458 -1.515167
v 3.248324 -0.303058 -1.650479
v 2.881674 -0.632174 -2.075317
v 2.035396 -0.266323 -2.035583
v 1.748788 -0.646439 -1.998451
v 0.496540 -0.403897 0.596097
v 0.000000 0.550164 0.565472
v -1.170392 0.190142 -0.306866
v -2.795200 -0.071958 -1.354865
v -1.870429 -0.184494 -0.679314
v -1.253193 -0.830483 -0.797697
v -1.261464 -0.293305 -0.163045
v -0.605354 -0.812394 0.208092
v -1.659075 -0.062350 -1.762836
v -1.647598 -0.917773 -1.312569
v -1.672818 0.055428 -0.810802
v -1.338821 0.209543 -0.553699
v -1.443898 0.015549 -0.492497
v -1.903761 0.012809 -1.308650
v -0.756708 0.172657 -1.313524
v -0.725958 -0.035744 0.579058
v -1.611596 -0.356525 -0.480796
v -1.457543 -0.167184 -0.408324
v -1.187292 -0.010934 -0.203210
v -0.614993 0.739000 0.214125
v -0.554110 0.829830 -0.371661
v -1.006220 0.461495 -0.369080
v -0.958540 0.293031 0.092976
v -0.577489 0.367882 0.546770
v -0.849141 0.162218 0.381843
v -1.767028 -0.585113 -0.663368
v -0.741242 -0.800007 -0.559959
v -1.056886 -0.860504 -1.021703
v -0.733200 -0.678966 -1.450949
v -0.950589 -0.432613 0.212605
v -0.986743 -0.051278 0.157668
v -0.240669 -0.211909 -1.406693
v -0.758120 -0.221407 -1.642000
v -0.263314 -0.682897 -1.160021
v -0.342405 -0.559502 -1.378882
v -1.210573 -0.584941 -1.797973
v -0.385125 0.228996 -1.139590
v -0.615120 -0.778405 -1.046416
v -0.138441 -0.434000 -1.303362
v -0.853059 0.341590 -0.929884
v -1.063060 0.008637 -1.537381
v -0.510141 0.046924 -1.426779
v -2.388407 -0.626183 -2.149614
v -0.544040 -0.441352 -1.534919
v -1.175804 -0.833200 -1.453516
v -2.386708 -0.938935 -1.262441
v -1.714286 -0.817739 -0.918591
v -1.423478 -0.876817 -1.001527
v -2.300558 -0.479088 -0.842763
v -2.922983 -0.139399 -1.954088
v -1.182836 -0.530098 -0.185272
v -2.102162 -0.104913 -1.047457
v -1.305619 0.087232 -1.293056
v -0.800587 -0.817239 -0.871847
v -0.790068 -0.491803 -1.632792
v -0.475875 -0.686207 -1.268539
v -1.264534 -0.241875 -1.810153
v -1.359929 0.161817 -1.077729
v -0.879586 -0.814438 -1.246505
v -0.178921 -0.570178 -1.256106
v -0.976330 -0.686360 -0.143085
v -1.859244 -0.400630 -0.691096
v -1.716491 -0.840247 -1.768810
v -1.300395 -0.691531 -0.517566
v -0.762986 0.030071 -1.501229
v -0.985708 0.137362 -1.250385
v -0.267508 0.054532 -1.304864
v -1.696285 -0.385682 -2.036643
v -1.428777 -0.502392 -0.383886
v -3.195373 -0.605942 -1.847584
v -2.174626 -0.964295 -1.691410
v -2.144871 -0.728573 -0.938544
v -1.373773 0.241525 -0.849072
v -2.354662 -0.228197 -0.995496
v -2.992777 -0.615345 -1.187741
v -2.297489 -0.094397 -1.900655
v -2.515611 -0.070513 -1.650113
v -2.485689 -0.720508 -1.031094
v -2.663849 -0.316217 -1.041215
v -2.698287 -0.901545 -1.794844
v -2.900414 -0.876458 -1.515167
v -3.248324 -0.303058 -1.650479
v -2.881674 -0.632174 -2.075317
v -2.035396 -0.266323 -2.035583
v -1.748788 -0.646439 -1.998451
v -0.496540 -0.403897 0.596097
vn 0.753005 0.459243 0.471253
vn -0.000000 -0.635873 0.771793
vn -0.000000 -0.988253 0.152828
vn 0.360732 0.853136 0.376871
vn 0.537764 0.406332 0.738718
vn 0.067044 -0.953310 0.294456
vn -0.000000 -0.939782 -0.341775
vn 0.740831 -0.000655 0.671691
vn 0.319891 -0.835581 0.446625
vn -0.090134 0.830272 -0.550021
vn -0.070931 -0.997194 0.023937
vn 0.537308 0.776770 0.328524
vn 0.653720 0.652803 0.382751
vn 0.634422 0.486083 0.601025
vn 0.174094 0.981518 -0.079459
vn 0.026699 0.863384 -0.503841
vn 0.000000 0.034253 0.999413
vn 0.000000 0.984342 0.176271
vn 0.601954 0.006530 0.798504
vn 0.627020 -0.060947 0.776616
vn 0.625373 0.287558 0.725410
vn 0.774241 0.291520 0.561753
vn 0.533885 0.717941 0.446685
vn 0.308347 0.912657 -0.268289
vn 0.669453 0.735198 0.106382
vn 0.823098 0.379663 0.422334
vn 0.469312 0.414353 0.779781
vn 0.797554 0.247263 0.550244
vn 0.000000 -0.604062 -0.796937
vn 0.420286 -0.471348 0.775365
vn 0.079666 -0.993754 0.078147
vn -0.112101 -0.993532 0.018099
vn -0.331368 -0.765295 -0.551832
vn 0.711215 -0.352805 0.608031
vn 0.848558 0.102515 0.519076
vn -0.481971 0.092471 -0.871294
vn -0.312766 0.230494 -0.921439
vn -0.269918 -0.807381 -0.524671
vn 0.000000 0.570813 -0.821080
vn -0.417076 -0.550078 -0.723507
vn -0.382955 -0.405013 -0.830247
vn -0.000000 -0.125221 -0.992129
vn -0.158282 0.796833 -0.583099
vn -0.156596 -0.967308 -0.199482
vn -0.517065 -0.283160 -0.807753
vn 0.184613 0.878846 -0.439941
vn -0.027763 0.800321 -0.598929
vn -0.269659 0.608203 -0.746574
vn -0.026954 -0.260009 -0.965230
vn -0.416605 -0.295047 -0.859877
vn -0.226838 -0.917602 -0.326420
vn 0.160796 -0.921580 0.353321
vn 0.153790 -0.880232 0.448933
vn 0.034082 -0.978914 0.201410
vn 0.379901 -0.080875 0.921485
vn 0.354620 0.695477 -0.624945
vn 0.629851 -0.524426 0.572944
vn 0.331074 0.854361 0.400571
vn 0.099075 0.927561 -0.360298
vn -0.183247 -0.983058 0.004113
vn -0.407367 -0.336137 -0.849155
vn -0.244285 -0.877912 -0.411821
vn -0.292647 0.412174 -0.862827
vn 0.166034 0.923320 -0.346285
vn -0.248928 -0.944712 -0.213433
vn -0.441143 -0.592869 -0.673720
vn 0.495249 -0.792038 0.356939
vn 0.480824 -0.090104 0.872175
vn -0.213594 -0.843743 -0.492419
vn 0.329664 -0.812579 0.480663
vn 0.000000 0.212548 -0.977151
vn -0.109831 0.653147 -0.749224
vn 0.162623 0.890353 -0.425236
vn 0.000000 0.801383 -0.598151
vn -0.361266 0.573594 -0.735172
vn -0.272879 0.200541 -0.940915
vn 0.553553 -0.448393 0.701800
vn 0.822506 -0.444514 -0.354813
vn -0.056730 -0.957028 -0.284393
vn 0.235882 -0.659604 0.713640
vn 0.390814 0.916996 -0.079898
vn 0.344049 0.644547 0.682781
vn 0.669036 -0.285790 0.686087
vn 0.024174 0.838970 -0.543640
vn 0.076138 0.990488 -0.114618
vn 0.283285 -0.608949 0.740899
vn 0.437626 0.431667 0.788763
vn 0.210700 -0.911206 -0.353991
vn 0.473539 -0.870493 0.134174
vn 0.902394 0.420603 0.093695
vn 0.364243 -0.342540 -0.866022
vn -0.062381 0.517857 -0.853190
vn -0.271466 -0.485267 -0.831157
vn 0.304428 -0.390007 0.869033
vn 0.000000 0.551777 0.833992
vn -0.753005 0.459243 0.471253
vn -0.360732 0.853136 0.376871
vn -0.537764 0.406332 0.738718
vn -0.067044 -0.953310 0.294456
vn -0.740831 -0.000655 0.671691
vn -0.319891 -0.835581 0.446625
vn 0.090134 0.830272 -0.550021
vn 0.070931 -0.997194 0.023937
vn -0.537308 0.776770 0.328524
vn -0.653720 0.652803 0.382751
vn -0.634422 0.486083 0.601025
vn -0.174094 0.981518 -0.079459
vn -0.026699 0.863384 -0.503841
vn -0.601954 0.006530 0.798504
vn -0.627020 -0.060947 0.776616
vn -0.625373 0.287558 0.725410
vn -0.774241 0.291520 0.561753
vn -0.533885 0.717941 0.446685
vn -0.308347 0.912657 -0.268289
vn -0.669453 0.735198 0.106382
vn -0.823098 0.379663 0.422334
vn -0.469311 0.414353 0.779781
vn -0.797554 0.247263 0.550244
vn -0.420286 -0.471348 0.775365
vn -0.079666 -0.993754 0.078147
vn 0.112101 -0.993532 0.018099
vn 0.331368 -0.765295 -0.551832
vn -0.711215 -0.352805 0.608031
vn -0.848558 0.102515 0.519076
vn 0.481971 0.092471 -0.871294
vn 0.312766 0.230494 -0.921439
vn 0.269918 -0.807381 -0.524671
vn 0.417076 -0.550078 -0.723507
vn 0.382955 -0.405013 -0.830247
vn 0.158282 0.796833 -0.583099
vn 0.156596 -0.967308 -0.199482
vn 0.517065 -0.283160 -0.807753
vn -0.184613 0.878846 -0.439941
vn 0.027763 0.800321 -0.598929
vn 0.269659 0.608203 -0.746574
vn 0.026954 -0.260009 -0.965230
vn 0.416605 -0.295047 -0.859877
vn 0.226838 -0.917602 -0.326420
vn -0.160796 -0.921580 0.353321
vn -0.153790 -0.880232 0.448933
vn -0.034082 -0.978914 0.201410
vn -0.379901 -0.080875 0.921485
vn -0.354620 0.695477 -0.624945
vn -0.629851 -0.524426 0.572944
vn -0.331074 0.854361 0.400571
vn -0.099075 0.927561 -0.360298
vn 0.183246 -0.983058 0.004113
vn 0.407367 -0.336137 -0.849155
vn 0.244285 -0.877912 -0.411821
vn 0.292647 0.412174 -0.862827
vn -0.166034 0.923320 -0.346285
vn 0.248928 -0.944712 -0.213433
vn 0.441143 -0.592869 -0.673720
vn -0.495249 -0.792038 0.356939
vn -0.480824 -0.090104 0.872175
vn 0.213594 -0.843743 -0.492419
vn -0.329664 -0.812579 0.480663
vn 0.109831 0.653147 -0.749224
vn -0.162623 0.890353 -0.425236
vn 0.361266 0.573594 -0.735172
vn 0.272879 0.200541 -0.940915
vn -0.553553 -0.448393 0.701800
vn -0.822506 -0.444514 -0.354813
vn 0.056730 -0.957028 -0.284393
vn -0.235882 -0.659604 0.713640
vn -0.390814 0.916996 -0.079898
vn -0.344049 0.644547 0.682781
vn -0.669036 -0.285790 0.686087
vn -0.024174 0.838970 -0.543640
vn -0.076138 0.990488 -0.114618
vn -0.283285 -0.608949 0.740899
vn -0.437626 0.431667 0.788763
vn -0.210700 -0.911206 -0.353991
vn -0.473539 -0.870493 0.134174
vn -0.902394 0.420603 0.093695
vn -0.364243 -0.342540 -0.866022
vn 0.062381 0.517857 -0.853190
vn 0.271466 -0.485267 -0.831157
vn -0.304428 -0.390007 0.869033
f 49//49 69//69 93//93
f 11//11 52//52 53//53
f 49//49 76//76 92//92
f 55//55 83//83 87//87
f 12//12 5//5 58//58
f 81//81 13//13 12//12
f 1//1 14//14 13//13
f 12//12 13//13 14//14
f 1//1 13//13 25//25
f 46//46 25//25 81//81
f 13//13 81//81 25//25
f 37//37 47//47 63//63
f 83//83 4//4 87//87
f 16//16 47//47 72//72
f 12//12 15//15 81//81
f 76//76 10//10 92//92
f 47//47 16//16 73//73
f 74//74 46//46 43//43
f 19//19 27//27 17//17
f 95//95 17//17 27//27
f 55//55 5//5 68//68
f 5//5 21//21 20//20
f 21//21 5//5 14//14
f 1//1 22//22 14//14
f 1//1 26//26 22//22
f 35//35 22//22 26//26
f 19//19 34//34 35//35
f 74//74 18//18 24//24
f 23//23 24//24 18//18
f 23//23 25//25 24//24
f 46//46 24//24 25//25
f 74//74 24//24 46//46
f 1//1 25//25 26//26
f 95//95 27//27 23//23
f 23//23 26//26 25//25
f 23//23 27//27 26//26
f 28//28 35//35 26//26
f 19//19 35//35 28//28
f 27//27 28//28 26//26
f 19//19 28//28 27//27
f 30//30 53//53 80//80
f 53//53 30//30 70//70
f 32//32 6//6 31//31
f 31//31 6//6 70//70
f 53//53 6//6 54//54
f 11//11 69//69 79//79
f 32//32 31//31 60//60
f 38//38 40//40 62//62
f 40//40 33//33 62//62
f 77//77 20//20 8//8
f 70//70 30//30 77//77
f 21//21 22//22 8//8
f 35//35 8//8 22//22
f 20//20 21//21 8//8
f 70//70 67//67 31//31
f 77//77 8//8 57//57
f 8//8 35//35 34//34
f 34//34 19//19 94//94
f 19//19 17//17 94//94
f 94//94 2//2 9//9
f 7//7 31//31 3//3
f 3//3 9//9 2//2
f 3//3 31//31 9//9
f 33//33 41//41 51//51
f 38//38 29//29 66//66
f 43//43 48//48 75//75
f 36//36 37//37 50//50
f 43//43 16//16 48//48
f 7//7 29//29 38//38
f 40//40 38//38 66//66
f 36//36 40//40 45//45
f 41//41 33//33 61//61
f 48//48 36//36 75//75
f 37//37 41//41 61//61
f 47//47 10//10 63//63
f 39//39 36//36 71//71
f 16//16 43//43 46//46
f 51//51 32//32 65//65
f 42//42 36//36 45//45
f 29//29 42//42 45//45
f 16//16 46//46 73//73
f 10//10 47//47 59//59
f 47//47 37//37 72//72
f 37//37 36//36 48//48
f 49//49 56//56 91//91
f 53//53 52//52 80//80
f 33//33 40//40 50//50
f 40//40 36//36 50//50
f 11//11 32//32 51//51
f 33//33 51//51 65//65
f 69//69 49//49 79//79
f 56//56 4//4 90//90
f 6//6 53//53 70//70
f 11//11 53//53 54//54
f 6//6 32//32 54//54
f 32//32 11//11 54//54
f 5//5 55//55 82//82
f 30//30 55//55 68//68
f 56//56 49//49 84//84
f 84//84 15//15 85//85
f 8//8 34//34 57//57
f 34//34 67//67 57//57
f 4//4 15//15 58//58
f 15//15 12//12 58//58
f 22//22 21//21 14//14
f 46//46 81//81 64//64
f 15//15 10//10 59//59
f 31//31 44//44 60//60
f 44//44 32//32 60//60
f 33//33 50//50 61//61
f 50//50 37//37 61//61
f 33//33 44//44 62//62
f 44//44 38//38 62//62
f 69//69 41//41 93//93
f 41//41 37//37 63//63
f 15//15 59//59 64//64
f 59//59 46//46 64//64
f 32//32 44//44 65//65
f 44//44 33//33 65//65
f 29//29 45//45 66//66
f 45//45 40//40 66//66
f 31//31 7//7 44//44
f 7//7 38//38 44//44
f 9//9 31//31 67//67
f 34//34 9//9 67//67
f 5//5 20//20 68//68
f 20//20 30//30 68//68
f 11//11 51//51 69//69
f 51//51 41//41 69//69
f 36//36 42//42 71//71
f 37//37 48//48 72//72
f 48//48 16//16 72//72
f 46//46 59//59 73//73
f 59//59 47//47 73//73
f 43//43 39//39 74//74
f 36//36 39//39 75//75
f 39//39 43//43 75//75
f 41//41 63//63 76//76
f 63//63 10//10 76//76
f 30//30 20//20 77//77
f 70//70 77//77 57//57
f 67//67 70//70 57//57
f 80//80 52//52 86//86
f 79//79 49//49 88//88
f 52//52 79//79 88//88
f 52//52 11//11 79//79
f 55//55 80//80 86//86
f 55//55 30//30 80//80
f 15//15 64//64 81//81
f 4//4 58//58 82//82
f 58//58 5//5 82//82
f 78//78 83//83 89//89
f 78//78 56//56 90//90
f 10//10 15//15 84//84
f 56//56 84//84 85//85
f 15//15 4//4 85//85
f 4//4 56//56 85//85
f 52//52 83//83 86//86
f 83//83 55//55 86//86
f 4//4 82//82 87//87
f 82//82 55//55 87//87
f 56//56 78//78 91//91
f 83//83 52//52 89//89
f 52//52 88//88 89//89
f 88//88 78//78 89//89
f 4//4 83//83 90//90
f 83//83 78//78 90//90
f 78//78 88//88 91//91
f 88//88 49//49 91//91
f 10//10 84//84 92//92
f 84//84 49//49 92//92
f 41//41 76//76 93//93
f 76//76 49//49 93//93
f 14//14 5//5 12//12
f 34//34 94//94 9//9
f 17//17 2//2 94//94
f 23//23 18//18 95//95
f 178//178 156//156 136//136
f 140//140 139//139 103//103
f 177//177 161//161 136//136
f 172//172 168//168 142//142
f 145//145 98//98 104//104
f 104//104 105//105 166//166
f 105//105 106//106 96//96
f 106//106 105//105 104//104
f 115//115 105//105 96//96
f 166//166 115//115 133//133
f 115//115 166//166 105//105
f 150//150 134//134 126//126
f 172//172 97//97 168//168
f 158//158 134//134 108//108
f 166//166 107//107 104//104
f 177//177 102//102 161//161
f 159//159 108//108 134//134
f 130//130 133//133 74//74
f 17//17 117//117 109//109
f 117//117 17//17 95//95
f 155//155 98//98 142//142
f 110//110 111//111 98//98
f 106//106 98//98 111//111
f 106//106 112//112 96//96
f 112//112 116//116 96//96
f 116//116 112//112 124//124
f 124//124 123//123 109//109
f 114//114 18//18 74//74
f 18//18 114//114 113//113
f 114//114 115//115 113//113
f 115//115 114//114 133//133
f 133//133 114//114 74//74
f 116//116 115//115 96//96
f 113//113 117//117 95//95
f 115//115 116//116 113//113
f 116//116 117//117 113//113
f 116//116 124//124 118//118
f 118//118 124//124 109//109
f 116//116 118//118 117//117
f 117//117 118//118 109//109
f 165//165 140//140 119//119
f 157//157 119//119 140//140
f 120//120 99//99 121//121
f 157//157 99//99 120//120
f 141//141 99//99 140//140
f 164//164 156//156 103//103
f 147//147 120//120 121//121
f 149//149 128//128 127//127
f 149//149 122//122 128//128
f 100//100 110//110 162//162
f 162//162 119//119 157//157
f 100//100 112//112 111//111
f 112//112 100//100 124//124
f 100//100 111//111 110//110
f 120//120 154//154 157//157
f 144//144 100//100 162//162
f 123//123 124//124 100//100
f 179//179 109//109 123//123
f 179//179 17//17 109//109
f 101//101 2//2 179//179
f 3//3 120//120 7//7
f 2//2 101//101 3//3
f 101//101 120//120 3//3
f 138//138 129//129 122//122
f 153//153 29//29 127//127
f 160//160 135//135 130//130
f 137//137 126//126 125//125
f 135//135 108//108 130//130
f 127//127 29//29 7//7
f 153//153 127//127 128//128
f 132//132 128//128 125//125
f 148//148 122//122 129//129
f 160//160 125//125 135//135
f 148//148 129//129 126//126
f 150//150 102//102 134//134
f 71//71 125//125 39//39
f 133//133 130//130 108//108
f 152//152 121//121 138//138
f 132//132 125//125 42//42
f 132//132 42//42 29//29
f 159//159 133//133 108//108
f 146//146 134//134 102//102
f 158//158 126//126 134//134
f 135//135 125//125 126//126
f 176//176 143//143 136//136
f 165//165 139//139 140//140
f 137//137 128//128 122//122
f 137//137 125//125 128//128
f 138//138 121//121 103//103
f 152//152 138//138 122//122
f 164//164 136//136 156//156
f 175//175 97//97 143//143
f 157//157 140//140 99//99
f 141//141 140//140 103//103
f 141//141 121//121 99//99
f 141//141 103//103 121//121
f 167//167 142//142 98//98
f 155//155 142//142 119//119
f 169//169 136//136 143//143
f 170//170 107//107 169//169
f 144//144 123//123 100//100
f 144//144 154//154 123//123
f 145//145 107//107 97//97
f 145//145 104//104 107//107
f 106//106 111//111 112//112
f 151//151 166//166 133//133
f 146//146 102//102 107//107
f 147//147 131//131 120//120
f 147//147 121//121 131//131
f 148//148 137//137 122//122
f 148//148 126//126 137//137
f 149//149 131//131 122//122
f 149//149 127//127 131//131
f 178//178 129//129 156//156
f 150//150 126//126 129//129
f 151//151 146//146 107//107
f 151//151 133//133 146//146
f 152//152 131//131 121//121
f 152//152 122//122 131//131
f 153//153 132//132 29//29
f 153//153 128//128 132//132
f 131//131 7//7 120//120
f 131//131 127//127 7//7
f 154//154 120//120 101//101
f 154//154 101//101 123//123
f 155//155 110//110 98//98
f 155//155 119//119 110//110
f 156//156 138//138 103//103
f 156//156 129//129 138//138
f 71//71 42//42 125//125
f 158//158 135//135 126//126
f 158//158 108//108 135//135
f 159//159 146//146 133//133
f 159//159 134//134 146//146
f 74//74 39//39 130//130
f 160//160 39//39 125//125
f 160//160 130//130 39//39
f 161//161 150//150 129//129
f 161//161 102//102 150//150
f 162//162 110//110 119//119
f 144//144 162//162 157//157
f 144//144 157//157 154//154
f 171//171 139//139 165//165
f 173//173 136//136 164//164
f 173//173 164//164 139//139
f 164//164 103//103 139//139
f 171//171 165//165 142//142
f 165//165 119//119 142//142
f 166//166 151//151 107//107
f 167//167 145//145 97//97
f 167//167 98//98 145//145
f 174//174 168//168 163//163
f 175//175 143//143 163//163
f 169//169 107//107 102//102
f 170//170 169//169 143//143
f 170//170 97//97 107//107
f 170//170 143//143 97//97
f 171//171 168//168 139//139
f 171//171 142//142 168//168
f 172//172 167//167 97//97
f 172//172 142//142 167//167
f 176//176 163//163 143//143
f 174//174 139//139 168//168
f 174//174 173//173 139//139
f 174//174 163//163 173//173
f 175//175 168//168 97//97
f 175//175 163//163 168//168
f 176//176 173//173 163//163
f 176//176 136//136 173//173
f 177//177 169//169 102//102
f 177//177 136//136 169//169
f 178//178 161//161 129//129
f 178//178 136//136 161//161
f 104//104 98//98 106//106
f 101//101 179//179 123//123
f 179//179 2//2 17//17
f 95//95 18//18 113//113
